{
date = "2012-08-21 05:40:05 +0000";
familyName = "silly81f";
fontMaster = (
{
ascender = 800;
capHeight = 700;
descender = "-200";
id = "85308D4F-3C98-4E4B-A926-E3A24A251B96";
weightValue = 80;
widthValue = 80;
xHeight = 500;
}
);
glyphs = (
{
glyphname = A;
lastChange = "2012-12-01 00:37:56 +0000";
layers = (
{
anchors = (
{
name = ogonek;
position = "{450, 10}";
},
{
name = top;
position = "{250, 700}";
}
);
guideLines = (
{
angle = 90;
position = "{40, 800}";
},
{
angle = 90;
position = "{460, 800}";
},
{
angle = 90;
position = "{250, 800}";
},
{
angle = 0;
position = "{0, 350}";
}
);
layerId = "85308D4F-3C98-4E4B-A926-E3A24A251B96";
name = Regular;
paths = (
{
closed = 1;
nodes = (
"250 560 LINE",
"310 300 LINE",
"190 300 LINE"
);
},
{
closed = 1;
nodes = (
"327 220 LINE",
"380 0 LINE",
"460 0 LINE",
"290 700 LINE",
"210 700 LINE",
"40 0 LINE",
"120 0 LINE",
"173 220 LINE"
);
}
);
width = 500;
}
);
unicode = 0041;
},
{
glyphname = B;
lastChange = "2012-08-25 03:51:44 +0000";
layers = (
{
guideLines = (
{
angle = 90;
position = "{40, 800}";
},
{
angle = 90;
position = "{460, 800}";
},
{
angle = 90;
position = "{250, 800}";
},
{
angle = 0;
position = "{0, 350}";
}
);
layerId = "85308D4F-3C98-4E4B-A926-E3A24A251B96";
name = Regular;
paths = (
{
closed = 0;
nodes = (
"190 310 LINE"
);
},
{
closed = 1;
nodes = (
"120 390 LINE",
"120 620 LINE",
"230 620 LINE",
"350 620 OFFCURVE",
"380 575 OFFCURVE",
"380 505 CURVE",
"380 435 OFFCURVE",
"310 390 OFFCURVE",
"190 390 CURVE"
);
},
{
closed = 1;
nodes = (
"120 80 LINE",
"120 310 LINE",
"190 310 LINE",
"310 310 OFFCURVE",
"380 265 OFFCURVE",
"380 195 CURVE",
"380 125 OFFCURVE",
"350 80 OFFCURVE",
"230 80 CURVE"
);
},
{
closed = 1;
nodes = (
"404 372 OFFCURVE",
"460 425 OFFCURVE",
"460 505 CURVE SMOOTH",
"460 634 OFFCURVE",
"385 700 OFFCURVE",
"230 700 CURVE",
"40 700 LINE",
"40 0 LINE",
"230 0 LINE",
"385 0 OFFCURVE",
"460 66 OFFCURVE",
"460 195 CURVE SMOOTH",
"460 275 OFFCURVE",
"408 328 OFFCURVE",
"360 350 CURVE"
);
},
{
closed = 0;
nodes = (
"190 390 LINE"
);
}
);
width = 500;
}
);
unicode = 0042;
},
{
glyphname = C;
lastChange = "2012-12-01 00:37:56 +0000";
layers = (
{
anchors = (
{
name = bottom;
position = "{250, 0}";
},
{
name = top;
position = "{250, 700}";
}
);
guideLines = (
{
angle = 90;
position = "{40, 800}";
},
{
angle = 90;
position = "{460, 800}";
},
{
angle = 90;
position = "{250, 800}";
},
{
angle = 0;
position = "{0, 350}";
}
);
layerId = "85308D4F-3C98-4E4B-A926-E3A24A251B96";
name = Regular;
paths = (
{
closed = 1;
nodes = (
"403 147 LINE",
"335 85 OFFCURVE",
"295 80 OFFCURVE",
"270 80 CURVE SMOOTH",
"165 80 OFFCURVE",
"120 200 OFFCURVE",
"120 350 CURVE SMOOTH",
"120 500 OFFCURVE",
"165 620 OFFCURVE",
"270 620 CURVE SMOOTH",
"295 620 OFFCURVE",
"335 615 OFFCURVE",
"403 553 CURVE",
"460 610 LINE",
"375 700 OFFCURVE",
"310 700 OFFCURVE",
"270 700 CURVE SMOOTH",
"105 700 OFFCURVE",
"40 549 OFFCURVE",
"40 350 CURVE SMOOTH",
"40 151 OFFCURVE",
"105 0 OFFCURVE",
"270 0 CURVE SMOOTH",
"310 0 OFFCURVE",
"375 0 OFFCURVE",
"460 90 CURVE"
);
}
);
width = 500;
}
);
unicode = 0043;
},
{
glyphname = D;
lastChange = "2012-12-01 00:37:56 +0000";
layers = (
{
anchors = (
{
name = center;
position = "{250, 350}";
},
{
name = top;
position = "{250, 700}";
}
);
guideLines = (
{
angle = 90;
position = "{40, 800}";
},
{
angle = 90;
position = "{460, 800}";
},
{
angle = 90;
position = "{250, 800}";
},
{
angle = 0;
position = "{0, 350}";
}
);
layerId = "85308D4F-3C98-4E4B-A926-E3A24A251B96";
name = Regular;
paths = (
{
closed = 1;
nodes = (
"380 120 OFFCURVE",
"250 80 OFFCURVE",
"200 80 CURVE",
"120 80 LINE",
"120 620 LINE",
"200 620 LINE",
"250 620 OFFCURVE",
"380 580 OFFCURVE",
"380 350 CURVE"
);
},
{
closed = 1;
nodes = (
"460 580 OFFCURVE",
"345 700 OFFCURVE",
"190 700 CURVE",
"40 700 LINE",
"40 0 LINE",
"190 0 LINE",
"345 0 OFFCURVE",
"460 121 OFFCURVE",
"460 350 CURVE SMOOTH"
);
}
);
width = 500;
}
);
unicode = 0044;
},
{
glyphname = E;
lastChange = "2012-12-01 00:37:56 +0000";
layers = (
{
anchors = (
{
name = bottom;
position = "{250, 0}";
},
{
name = ogonek;
position = "{450, 10}";
},
{
name = top;
position = "{250, 700}";
}
);
guideLines = (
{
angle = 90;
position = "{40, 800}";
},
{
angle = 90;
position = "{460, 800}";
},
{
angle = 90;
position = "{250, 800}";
},
{
angle = 0;
position = "{0, 350}";
}
);
layerId = "85308D4F-3C98-4E4B-A926-E3A24A251B96";
name = Regular;
paths = (
{
closed = 1;
nodes = (
"40 0 LINE",
"460 0 LINE",
"460 80 LINE",
"120 80 LINE",
"120 310 LINE",
"340 310 LINE",
"340 390 LINE",
"120 390 LINE",
"120 620 LINE",
"460 620 LINE",
"460 700 LINE",
"40 700 LINE"
);
}
);
width = 500;
}
);
unicode = 0045;
},
{
glyphname = F;
lastChange = "2012-08-25 03:39:26 +0000";
layers = (
{
layerId = "85308D4F-3C98-4E4B-A926-E3A24A251B96";
name = Regular;
paths = (
{
closed = 1;
nodes = (
"40 0 LINE",
"120 0 LINE",
"120 310 LINE",
"340 310 LINE",
"340 390 LINE",
"120 390 LINE",
"120 620 LINE",
"460 620 LINE",
"460 700 LINE",
"40 700 LINE"
);
}
);
width = 500;
}
);
unicode = 0046;
},
{
glyphname = G;
lastChange = "2012-12-01 00:37:56 +0000";
layers = (
{
anchors = (
{
name = bottom;
position = "{250, 0}";
},
{
name = top;
position = "{250, 700}";
}
);
guideLines = (
{
angle = 90;
position = "{40, 800}";
},
{
angle = 90;
position = "{460, 800}";
},
{
angle = 90;
position = "{250, 800}";
},
{
angle = 0;
position = "{0, 350}";
}
);
layerId = "85308D4F-3C98-4E4B-A926-E3A24A251B96";
name = Regular;
paths = (
{
closed = 1;
nodes = (
"250 390 LINE",
"250 310 LINE",
"380 310 LINE",
"380 160 OFFCURVE",
"355 80 OFFCURVE",
"250 80 CURVE SMOOTH",
"145 80 OFFCURVE",
"120 160 OFFCURVE",
"120 350 CURVE SMOOTH",
"120 500 OFFCURVE",
"145 620 OFFCURVE",
"250 620 CURVE SMOOTH",
"275 620 OFFCURVE",
"315 615 OFFCURVE",
"383 553 CURVE",
"440 610 LINE",
"355 700 OFFCURVE",
"290 700 OFFCURVE",
"250 700 CURVE SMOOTH",
"85 700 OFFCURVE",
"40 549 OFFCURVE",
"40 350 CURVE SMOOTH",
"40 141 OFFCURVE",
"85 0 OFFCURVE",
"250 0 CURVE SMOOTH",
"415 0 OFFCURVE",
"460 141 OFFCURVE",
"460 310 CURVE",
"460 390 LINE"
);
}
);
width = 500;
}
);
unicode = 0047;
},
{
glyphname = H;
lastChange = "2012-12-01 00:37:56 +0000";
layers = (
{
anchors = (
{
name = center;
position = "{250, 350}";
},
{
name = top;
position = "{250, 700}";
}
);
guideLines = (
{
angle = 90;
position = "{40, 800}";
},
{
angle = 90;
position = "{460, 800}";
},
{
angle = 90;
position = "{250, 800}";
},
{
angle = 0;
position = "{0, 350}";
}
);
layerId = "85308D4F-3C98-4E4B-A926-E3A24A251B96";
name = Regular;
paths = (
{
closed = 1;
nodes = (
"40 0 LINE",
"120 0 LINE",
"120 310 LINE",
"380 310 LINE",
"380 0 LINE",
"460 0 LINE",
"460 700 LINE",
"380 700 LINE",
"380 390 LINE",
"120 390 LINE",
"120 700 LINE",
"40 700 LINE"
);
}
);
width = 500;
}
);
unicode = 0048;
},
{
glyphname = I;
lastChange = "2012-12-01 00:37:56 +0000";
layers = (
{
anchors = (
{
name = ogonek;
position = "{450, 10}";
},
{
name = top;
position = "{250, 700}";
}
);
guideLines = (
{
angle = 90;
position = "{250, 800}";
},
{
angle = 90;
position = "{460, 800}";
},
{
angle = 90;
position = "{40, 800}";
}
);
layerId = "85308D4F-3C98-4E4B-A926-E3A24A251B96";
name = Regular;
paths = (
{
closed = 1;
nodes = (
"100 620 LINE",
"210 620 LINE",
"210 80 LINE",
"100 80 LINE",
"100 0 LINE",
"400 0 LINE",
"400 80 LINE",
"290 80 LINE",
"290 620 LINE",
"400 620 LINE",
"400 700 LINE",
"100 700 LINE"
);
}
);
width = 500;
}
);
unicode = 0049;
},
{
glyphname = J;
lastChange = "2012-12-01 00:37:56 +0000";
layers = (
{
anchors = (
{
name = top;
position = "{250, 700}";
}
);
guideLines = (
{
angle = 90;
position = "{40, 800}";
},
{
angle = 90;
position = "{460, 800}";
},
{
angle = 90;
position = "{250, 800}";
},
{
angle = 0;
position = "{0, 350}";
}
);
layerId = "85308D4F-3C98-4E4B-A926-E3A24A251B96";
name = Regular;
paths = (
{
closed = 1;
nodes = (
"380 0 OFFCURVE",
"460 105 OFFCURVE",
"460 280 CURVE",
"460 700 LINE",
"380 700 LINE",
"380 280 LINE",
"380 125 OFFCURVE",
"295 80 OFFCURVE",
"230 80 CURVE",
"189 80 OFFCURVE",
"128 101 OFFCURVE",
"92 138 CURVE",
"40 81 LINE",
"87 33 OFFCURVE",
"149 0 OFFCURVE",
"230 0 CURVE"
);
}
);
width = 500;
}
);
unicode = 004A;
},
{
glyphname = K;
lastChange = "2012-12-01 00:37:56 +0000";
layers = (
{
anchors = (
{
name = bottom;
position = "{250, 0}";
},
{
name = top;
position = "{250, 700}";
}
);
guideLines = (
{
angle = 90;
position = "{40, 800}";
},
{
angle = 90;
position = "{460, 800}";
},
{
angle = 90;
position = "{250, 800}";
},
{
angle = 0;
position = "{0, 350}";
}
);
layerId = "85308D4F-3C98-4E4B-A926-E3A24A251B96";
name = Regular;
paths = (
{
closed = 1;
nodes = (
"40 0 LINE",
"120 0 LINE",
"120 290 LINE",
"370 0 LINE",
"460 0 LINE",
"170 350 LINE",
"460 700 LINE",
"370 700 LINE",
"120 410 LINE",
"120 700 LINE",
"40 700 LINE"
);
}
);
width = 500;
}
);
unicode = 004B;
},
{
glyphname = L;
lastChange = "2012-12-01 00:37:56 +0000";
layers = (
{
anchors = (
{
name = bottom;
position = "{250, 0}";
},
{
name = top;
position = "{250, 700}";
}
);
layerId = "85308D4F-3C98-4E4B-A926-E3A24A251B96";
name = Regular;
paths = (
{
closed = 1;
nodes = (
"40 0 LINE",
"460 0 LINE",
"460 80 LINE",
"120 80 LINE",
"120 700 LINE",
"40 700 LINE"
);
}
);
width = 500;
}
);
unicode = 004C;
},
{
glyphname = M;
lastChange = "2012-08-25 04:15:32 +0000";
layers = (
{
guideLines = (
{
angle = 90;
position = "{40, 800}";
},
{
angle = 90;
position = "{460, 800}";
},
{
angle = 90;
position = "{250, 800}";
},
{
angle = 0;
position = "{0, 350}";
}
);
layerId = "85308D4F-3C98-4E4B-A926-E3A24A251B96";
name = Regular;
paths = (
{
closed = 1;
nodes = (
"120 0 LINE",
"120 420 LINE",
"210 130 LINE",
"290 130 LINE",
"380 420 LINE",
"380 0 LINE",
"460 0 LINE",
"460 700 LINE",
"380 700 LINE",
"250 280 LINE",
"120 700 LINE",
"40 700 LINE",
"40 0 LINE"
);
}
);
width = 500;
}
);
unicode = 004D;
},
{
glyphname = N;
lastChange = "2012-12-01 00:37:56 +0000";
layers = (
{
anchors = (
{
name = bottom;
position = "{250, 0}";
},
{
name = top;
position = "{250, 700}";
}
);
layerId = "85308D4F-3C98-4E4B-A926-E3A24A251B96";
name = Regular;
paths = (
{
closed = 1;
nodes = (
"120 0 LINE",
"120 520 LINE",
"380 0 LINE",
"460 0 LINE",
"460 700 LINE",
"380 700 LINE",
"380 180 LINE",
"120 700 LINE",
"40 700 LINE",
"40 0 LINE"
);
}
);
width = 500;
}
);
unicode = 004E;
},
{
glyphname = O;
lastChange = "2012-12-01 00:37:56 +0000";
layers = (
{
anchors = (
{
name = top;
position = "{250, 700}";
}
);
guideLines = (
{
angle = 90;
position = "{40, 800}";
},
{
angle = 90;
position = "{460, 800}";
},
{
angle = 90;
position = "{250, 800}";
},
{
angle = 0;
position = "{-50, 350}";
}
);
layerId = "85308D4F-3C98-4E4B-A926-E3A24A251B96";
name = Regular;
paths = (
{
closed = 1;
nodes = (
"370 0 OFFCURVE",
"475 110 OFFCURVE",
"475 350 CURVE SMOOTH",
"475 590 OFFCURVE",
"370 700 OFFCURVE",
"250 700 CURVE SMOOTH",
"130 700 OFFCURVE",
"25 590 OFFCURVE",
"25 350 CURVE SMOOTH",
"25 110 OFFCURVE",
"130 0 OFFCURVE",
"250 0 CURVE SMOOTH"
);
},
{
closed = 1;
nodes = (
"170 80 OFFCURVE",
"105 190 OFFCURVE",
"105 350 CURVE SMOOTH",
"105 510 OFFCURVE",
"170 620 OFFCURVE",
"250 620 CURVE SMOOTH",
"330 620 OFFCURVE",
"395 510 OFFCURVE",
"395 350 CURVE SMOOTH",
"395 190 OFFCURVE",
"330 80 OFFCURVE",
"250 80 CURVE SMOOTH"
);
}
);
width = 500;
}
);
unicode = 004F;
},
{
glyphname = P;
lastChange = "2012-08-25 04:28:00 +0000";
layers = (
{
layerId = "85308D4F-3C98-4E4B-A926-E3A24A251B96";
name = Regular;
paths = (
{
closed = 1;
nodes = (
"120 390 LINE",
"120 620 LINE",
"230 620 LINE",
"350 620 OFFCURVE",
"380 570 OFFCURVE",
"380 500 CURVE",
"380 430 OFFCURVE",
"350 390 OFFCURVE",
"190 390 CURVE"
);
},
{
closed = 1;
nodes = (
"190 310 LINE",
"385 311 OFFCURVE",
"460 370 OFFCURVE",
"460 500 CURVE SMOOTH",
"460 630 OFFCURVE",
"385 700 OFFCURVE",
"230 700 CURVE",
"40 700 LINE",
"40 0 LINE",
"120 0 LINE",
"120 310 LINE"
);
},
{
closed = 0;
nodes = (
"190 390 LINE"
);
}
);
width = 500;
}
);
unicode = 0050;
},
{
glyphname = Q;
lastChange = "2012-08-26 22:34:58 +0000";
layers = (
{
guideLines = (
{
angle = 90;
position = "{40, 800}";
},
{
angle = 90;
position = "{460, 800}";
},
{
angle = 90;
position = "{250, 800}";
},
{
angle = 0;
position = "{0, 350}";
}
);
layerId = "85308D4F-3C98-4E4B-A926-E3A24A251B96";
name = Regular;
paths = (
{
closed = 1;
nodes = (
"338 16 OFFCURVE",
"295 0 OFFCURVE",
"250 0 CURVE SMOOTH",
"130 0 OFFCURVE",
"25 110 OFFCURVE",
"25 350 CURVE SMOOTH",
"25 590 OFFCURVE",
"130 700 OFFCURVE",
"250 700 CURVE SMOOTH",
"370 700 OFFCURVE",
"475 590 OFFCURVE",
"475 350 CURVE SMOOTH",
"475 247 OFFCURVE",
"456 168 OFFCURVE",
"424 112 CURVE",
"492 30 LINE",
"432 -20 LINE",
"374 48 LINE"
);
},
{
closed = 1;
nodes = (
"240 210 LINE",
"300 260 LINE",
"365 182 LINE",
"384 227 OFFCURVE",
"395 284 OFFCURVE",
"395 350 CURVE SMOOTH",
"395 510 OFFCURVE",
"330 620 OFFCURVE",
"250 620 CURVE SMOOTH",
"170 620 OFFCURVE",
"105 510 OFFCURVE",
"105 350 CURVE SMOOTH",
"105 190 OFFCURVE",
"170 80 OFFCURVE",
"250 80 CURVE SMOOTH",
"276 80 OFFCURVE",
"300 92 OFFCURVE",
"322 113 CURVE"
);
}
);
width = 500;
}
);
unicode = 0051;
},
{
glyphname = R;
lastChange = "2012-12-01 00:37:56 +0000";
layers = (
{
anchors = (
{
name = bottom;
position = "{250, 0}";
},
{
name = top;
position = "{250, 700}";
}
);
guideLines = (
{
angle = 90;
position = "{40, 800}";
},
{
angle = 90;
position = "{460, 800}";
},
{
angle = 90;
position = "{250, 800}";
},
{
angle = 0;
position = "{0, 350}";
}
);
layerId = "85308D4F-3C98-4E4B-A926-E3A24A251B96";
name = Regular;
paths = (
{
closed = 1;
nodes = (
"120 390 LINE",
"120 620 LINE",
"230 620 LINE",
"350 620 OFFCURVE",
"380 570 OFFCURVE",
"380 500 CURVE",
"380 430 OFFCURVE",
"350 390 OFFCURVE",
"190 390 CURVE"
);
},
{
closed = 1;
nodes = (
"320 323 LINE",
"350 324 OFFCURVE",
"460 370 OFFCURVE",
"460 500 CURVE SMOOTH",
"460 630 OFFCURVE",
"385 700 OFFCURVE",
"230 700 CURVE",
"40 700 LINE",
"40 0 LINE",
"120 0 LINE",
"120 310 LINE",
"240 310 LINE",
"370 0 LINE",
"460 0 LINE"
);
},
{
closed = 0;
nodes = (
"190 390 LINE"
);
}
);
width = 500;
}
);
unicode = 0052;
},
{
glyphname = S;
lastChange = "2012-12-01 00:37:56 +0000";
layers = (
{
anchors = (
{
name = bottom;
position = "{259, 0}";
},
{
name = top;
position = "{259, 700}";
}
);
guideLines = (
{
angle = 90;
position = "{40, 800}";
},
{
angle = 90;
position = "{460, 800}";
},
{
angle = 90;
position = "{250, 800}";
},
{
angle = 0;
position = "{0, 350}";
}
);
layerId = "85308D4F-3C98-4E4B-A926-E3A24A251B96";
name = Regular;
paths = (
{
closed = 1;
nodes = (
"380 260 OFFCURVE",
"360 310 OFFCURVE",
"250 310 CURVE SMOOTH",
"140 310 OFFCURVE",
"40 360 OFFCURVE",
"40 505 CURVE",
"40 650 OFFCURVE",
"185 700 OFFCURVE",
"250 700 CURVE SMOOTH",
"290 700 OFFCURVE",
"365 700 OFFCURVE",
"460 610 CURVE",
"403 553 LINE",
"335 615 OFFCURVE",
"275 620 OFFCURVE",
"250 620 CURVE SMOOTH",
"195 620 OFFCURVE",
"120 575 OFFCURVE",
"120 505 CURVE SMOOTH",
"120 440 OFFCURVE",
"140 390 OFFCURVE",
"250 390 CURVE SMOOTH",
"360 390 OFFCURVE",
"460 340 OFFCURVE",
"460 195 CURVE",
"460 52 OFFCURVE",
"325 0 OFFCURVE",
"250 0 CURVE SMOOTH",
"210 0 OFFCURVE",
"135 0 OFFCURVE",
"40 90 CURVE",
"97 147 LINE",
"165 85 OFFCURVE",
"225 80 OFFCURVE",
"250 80 CURVE SMOOTH",
"312 80 OFFCURVE",
"380 125 OFFCURVE",
"380 195 CURVE"
);
}
);
width = 517;
}
);
unicode = 0053;
},
{
glyphname = T;
lastChange = "2012-12-01 00:37:56 +0000";
layers = (
{
anchors = (
{
name = bottom;
position = "{259, 0}";
},
{
name = center;
position = "{259, 350}";
},
{
name = top;
position = "{259, 700}";
}
);
guideLines = (
{
angle = 90;
position = "{40, 800}";
},
{
angle = 90;
position = "{460, 800}";
},
{
angle = 90;
position = "{250, 800}";
},
{
angle = 0;
position = "{0, 350}";
}
);
layerId = "85308D4F-3C98-4E4B-A926-E3A24A251B96";
name = Regular;
paths = (
{
closed = 1;
nodes = (
"40 620 LINE",
"210 620 LINE",
"210 0 LINE",
"290 0 LINE",
"290 620 LINE",
"460 620 LINE",
"460 700 LINE",
"40 700 LINE"
);
}
);
width = 518;
}
);
unicode = 0054;
},
{
glyphname = U;
lastChange = "2012-12-01 00:37:56 +0000";
layers = (
{
anchors = (
{
name = ogonek;
position = "{450, 10}";
},
{
name = top;
position = "{250, 700}";
}
);
guideLines = (
{
angle = 90;
position = "{40, 800}";
},
{
angle = 90;
position = "{460, 800}";
},
{
angle = 90;
position = "{250, 800}";
},
{
angle = 0;
position = "{0, 350}";
}
);
layerId = "85308D4F-3C98-4E4B-A926-E3A24A251B96";
name = Regular;
paths = (
{
closed = 1;
nodes = (
"400 0 OFFCURVE",
"460 125 OFFCURVE",
"460 280 CURVE",
"460 700 LINE",
"380 700 LINE",
"380 280 LINE",
"380 135 OFFCURVE",
"315 80 OFFCURVE",
"250 80 CURVE",
"185 80 OFFCURVE",
"120 125 OFFCURVE",
"120 280 CURVE",
"120 700 LINE",
"40 700 LINE",
"40 280 LINE",
"40 115 OFFCURVE",
"100 0 OFFCURVE",
"250 0 CURVE"
);
}
);
width = 500;
}
);
unicode = 0055;
},
{
glyphname = V;
lastChange = "2012-08-25 02:53:34 +0000";
layers = (
{
layerId = "85308D4F-3C98-4E4B-A926-E3A24A251B96";
name = Regular;
paths = (
{
closed = 1;
nodes = (
"210 0 LINE",
"290 0 LINE",
"460 700 LINE",
"380 700 LINE",
"250 140 LINE",
"120 700 LINE",
"40 700 LINE"
);
}
);
width = 500;
}
);
unicode = 0056;
},
{
glyphname = W;
lastChange = "2012-12-01 00:37:56 +0000";
layers = (
{
anchors = (
{
name = top;
position = "{250, 700}";
}
);
guideLines = (
{
angle = 90;
position = "{40, 800}";
},
{
angle = 90;
position = "{460, 800}";
},
{
angle = 90;
position = "{250, 800}";
},
{
angle = 0;
position = "{0, 350}";
}
);
layerId = "85308D4F-3C98-4E4B-A926-E3A24A251B96";
name = Regular;
paths = (
{
closed = 1;
nodes = (
"98 0 LINE",
"178 0 LINE",
"250 420 LINE",
"322 0 LINE",
"402 0 LINE",
"475 700 LINE",
"395 700 LINE",
"352 280 LINE",
"290 700 LINE",
"210 700 LINE",
"148 280 LINE",
"105 700 LINE",
"25 700 LINE"
);
}
);
width = 500;
}
);
unicode = 0057;
},
{
glyphname = X;
lastChange = "2012-08-25 20:05:16 +0000";
layers = (
{
guideLines = (
{
angle = 90;
position = "{40, 800}";
},
{
angle = 90;
position = "{460, 800}";
},
{
angle = 90;
position = "{250, 800}";
},
{
angle = 0;
position = "{0, 350}";
}
);
layerId = "85308D4F-3C98-4E4B-A926-E3A24A251B96";
name = Regular;
paths = (
{
closed = 1;
nodes = (
"130 700 LINE",
"250 430 LINE",
"370 700 LINE",
"460 700 LINE",
"300 350 LINE",
"460 0 LINE",
"370 0 LINE",
"250 270 LINE",
"130 0 LINE",
"40 0 LINE",
"200 350 LINE",
"40 700 LINE"
);
}
);
width = 500;
}
);
unicode = 0058;
},
{
glyphname = Y;
lastChange = "2012-12-01 00:37:56 +0000";
layers = (
{
anchors = (
{
name = top;
position = "{250, 700}";
}
);
guideLines = (
{
angle = 90;
position = "{40, 800}";
},
{
angle = 90;
position = "{460, 800}";
},
{
angle = 90;
position = "{250, 800}";
},
{
angle = 0;
position = "{0, 350}";
}
);
layerId = "85308D4F-3C98-4E4B-A926-E3A24A251B96";
name = Regular;
paths = (
{
closed = 1;
nodes = (
"210 320 LINE",
"210 0 LINE",
"290 0 LINE",
"290 320 LINE",
"460 700 LINE",
"380 700 LINE",
"250 420 LINE",
"120 700 LINE",
"40 700 LINE"
);
}
);
width = 500;
}
);
unicode = 0059;
},
{
glyphname = Z;
lastChange = "2012-12-01 00:37:56 +0000";
layers = (
{
anchors = (
{
name = top;
position = "{250, 700}";
}
);
guideLines = (
{
angle = 90;
position = "{40, 800}";
},
{
angle = 90;
position = "{460, 800}";
},
{
angle = 90;
position = "{250, 800}";
},
{
angle = 0;
position = "{0, 350}";
}
);
layerId = "85308D4F-3C98-4E4B-A926-E3A24A251B96";
name = Regular;
paths = (
{
closed = 1;
nodes = (
"40 620 LINE",
"370 620 LINE",
"40 80 LINE",
"40 0 LINE",
"460 0 LINE",
"460 80 LINE",
"130 80 LINE",
"460 619 LINE",
"460 700 LINE",
"40 700 LINE"
);
}
);
width = 500;
}
);
unicode = 005A;
},
{
glyphname = a;
lastChange = "2012-12-01 00:37:56 +0000";
layers = (
{
anchors = (
{
name = ogonek;
position = "{450, 10}";
},
{
name = top;
position = "{250, 500}";
}
);
background = {
paths = (
{
closed = 1;
nodes = (
"702 563 LINE",
"641 563 LINE SMOOTH",
"426 563 OFFCURVE",
"317 487 OFFCURVE",
"317 338 CURVE SMOOTH",
"317 203 OFFCURVE",
"403 125 OFFCURVE",
"547 125 CURVE SMOOTH",
"750 125 OFFCURVE",
"873 274 OFFCURVE",
"874 522 CURVE SMOOTH",
"874 563 LINE"
);
},
{
closed = 1;
nodes = (
"1059 0 LINE",
"874 0 LINE",
"874 166 LINE",
"795 33 OFFCURVE",
"679 -29 OFFCURVE",
"508 -29 CURVE SMOOTH",
"280 -29 OFFCURVE",
"133 110 OFFCURVE",
"133 326 CURVE SMOOTH",
"133 575 OFFCURVE",
"303 707 OFFCURVE",
"627 707 CURVE SMOOTH",
"874 707 LINE",
"874 736 LINE",
"873 915 OFFCURVE",
"788 991 OFFCURVE",
"592 991 CURVE SMOOTH",
"467 991 OFFCURVE",
"336 954 OFFCURVE",
"215 885 CURVE",
"215 1069 LINE",
"351 1121 OFFCURVE",
"475 1147 OFFCURVE",
"592 1147 CURVE SMOOTH",
"777 1147 OFFCURVE",
"908 1092 OFFCURVE",
"989 983 CURVE SMOOTH",
"1040 916 OFFCURVE",
"1059 835 OFFCURVE",
"1059 639 CURVE SMOOTH"
);
}
);
};
guideLines = (
{
angle = 90;
position = "{250, 800}";
},
{
angle = 0;
position = "{-50, 250}";
},
{
angle = 90;
position = "{40, 800}";
},
{
angle = 90;
position = "{460, 800}";
},
{
angle = 0;
position = "{-50, 250}";
},
{
angle = 90;
position = "{250, 800}";
}
);
layerId = "85308D4F-3C98-4E4B-A926-E3A24A251B96";
name = Regular;
paths = (
{
closed = 1;
nodes = (
"380 0 LINE",
"460 0 LINE",
"460 346 LINE SMOOTH",
"460 425 OFFCURVE",
"405 500 OFFCURVE",
"269 500 CURVE",
"207 500 OFFCURVE",
"130 484 OFFCURVE",
"71 436 CURVE",
"116 368 LINE",
"236 449 OFFCURVE",
"380 420 OFFCURVE",
"380 338 CURVE",
"380 274 LINE",
"380 274 OFFCURVE",
"366 310 OFFCURVE",
"250 310 CURVE SMOOTH",
"123 310 OFFCURVE",
"40 230 OFFCURVE",
"40 145 CURVE SMOOTH",
"40 59 OFFCURVE",
"133 -10 OFFCURVE",
"250 -10 CURVE SMOOTH",
"366 -10 OFFCURVE",
"380 17 OFFCURVE",
"380 17 CURVE"
);
},
{
closed = 1;
nodes = (
"171 70 OFFCURVE",
"120 103 OFFCURVE",
"120 150 CURVE SMOOTH",
"120 196 OFFCURVE",
"171 230 OFFCURVE",
"250 230 CURVE SMOOTH",
"329 230 OFFCURVE",
"380 196 OFFCURVE",
"380 150 CURVE SMOOTH",
"380 103 OFFCURVE",
"329 70 OFFCURVE",
"250 70 CURVE SMOOTH"
);
}
);
width = 500;
}
);
unicode = 0061;
},
{
glyphname = b;
lastChange = "2012-08-24 19:11:47 +0000";
layers = (
{
guideLines = (
{
angle = 90;
position = "{40, 800}";
},
{
angle = 90;
position = "{460, 800}";
},
{
angle = 90;
position = "{250, 800}";
},
{
angle = 0;
position = "{0, 250}";
}
);
layerId = "85308D4F-3C98-4E4B-A926-E3A24A251B96";
name = Regular;
paths = (
{
closed = 0;
nodes = (
"40 250 LINE"
);
},
{
closed = 1;
nodes = (
"180 80 OFFCURVE",
"120 150 OFFCURVE",
"120 250 CURVE SMOOTH",
"120 350 OFFCURVE",
"180 420 OFFCURVE",
"250 420 CURVE SMOOTH",
"320 420 OFFCURVE",
"380 350 OFFCURVE",
"380 250 CURVE",
"380 150 OFFCURVE",
"320 80 OFFCURVE",
"250 80 CURVE SMOOTH"
);
},
{
closed = 1;
nodes = (
"155 12 OFFCURVE",
"197 0 OFFCURVE",
"250 0 CURVE SMOOTH",
"374 0 OFFCURVE",
"460 101 OFFCURVE",
"460 250 CURVE SMOOTH",
"460 399 OFFCURVE",
"374 500 OFFCURVE",
"250 500 CURVE SMOOTH",
"199 500 OFFCURVE",
"154 483 OFFCURVE",
"120 452 CURVE",
"120 700 LINE",
"40 700 LINE",
"40 0 LINE",
"120 0 LINE",
"120 45 LINE"
);
}
);
width = 500;
}
);
unicode = 0062;
},
{
glyphname = c;
lastChange = "2012-12-01 00:37:56 +0000";
layers = (
{
anchors = (
{
name = bottom;
position = "{250, 0}";
},
{
name = top;
position = "{250, 500}";
}
);
guideLines = (
{
angle = 90;
position = "{250, 800}";
},
{
angle = 0;
position = "{-50, 250}";
},
{
angle = 90;
position = "{40, 800}";
},
{
angle = 90;
position = "{460, 800}";
}
);
layerId = "85308D4F-3C98-4E4B-A926-E3A24A251B96";
name = Regular;
paths = (
{
closed = 1;
nodes = (
"403 147 LINE",
"335 85 OFFCURVE",
"295 80 OFFCURVE",
"270 80 CURVE SMOOTH",
"205 80 OFFCURVE",
"120 150 OFFCURVE",
"120 250 CURVE SMOOTH",
"120 350 OFFCURVE",
"205 420 OFFCURVE",
"270 420 CURVE SMOOTH",
"295 420 OFFCURVE",
"335 415 OFFCURVE",
"403 353 CURVE",
"460 410 LINE",
"375 500 OFFCURVE",
"310 500 OFFCURVE",
"270 500 CURVE SMOOTH",
"145 500 OFFCURVE",
"40 399 OFFCURVE",
"40 250 CURVE SMOOTH",
"40 101 OFFCURVE",
"145 0 OFFCURVE",
"270 0 CURVE SMOOTH",
"310 0 OFFCURVE",
"375 0 OFFCURVE",
"460 90 CURVE"
);
}
);
width = 500;
}
);
unicode = 0063;
},
{
glyphname = d;
lastChange = "2012-12-01 00:37:56 +0000";
layers = (
{
anchors = (
{
name = center;
position = "{250, 250}";
}
);
layerId = "85308D4F-3C98-4E4B-A926-E3A24A251B96";
name = Regular;
paths = (
{
closed = 0;
nodes = (
"460 250 LINE"
);
},
{
closed = 1;
nodes = (
"180 80 OFFCURVE",
"120 150 OFFCURVE",
"120 250 CURVE",
"120 350 OFFCURVE",
"180 420 OFFCURVE",
"250 420 CURVE SMOOTH",
"320 420 OFFCURVE",
"380 350 OFFCURVE",
"380 250 CURVE SMOOTH",
"380 150 OFFCURVE",
"320 80 OFFCURVE",
"250 80 CURVE SMOOTH"
);
},
{
closed = 1;
nodes = (
"380 0 LINE",
"460 0 LINE",
"460 700 LINE",
"380 700 LINE",
"380 452 LINE",
"346 483 OFFCURVE",
"301 500 OFFCURVE",
"250 500 CURVE SMOOTH",
"126 500 OFFCURVE",
"40 399 OFFCURVE",
"40 250 CURVE SMOOTH",
"40 101 OFFCURVE",
"126 0 OFFCURVE",
"250 0 CURVE SMOOTH",
"303 0 OFFCURVE",
"345 12 OFFCURVE",
"380 45 CURVE"
);
}
);
width = 500;
}
);
unicode = 0064;
},
{
glyphname = e;
lastChange = "2012-12-01 00:37:56 +0000";
layers = (
{
anchors = (
{
name = bottom;
position = "{250, 0}";
},
{
name = ogonek;
position = "{450, 10}";
},
{
name = top;
position = "{250, 500}";
}
);
guideLines = (
{
angle = 90;
position = "{40, 800}";
},
{
angle = 90;
position = "{460, 800}";
},
{
angle = 90;
position = "{250, 800}";
},
{
angle = 0;
position = "{0, 250}";
}
);
layerId = "85308D4F-3C98-4E4B-A926-E3A24A251B96";
name = Regular;
paths = (
{
closed = 1;
nodes = (
"131 376 OFFCURVE",
"180 420 OFFCURVE",
"250 420 CURVE SMOOTH",
"320 420 OFFCURVE",
"370 380 OFFCURVE",
"377 310 CURVE",
"122 310 LINE"
);
},
{
closed = 1;
nodes = (
"463 230 LINE",
"464 230 OFFCURVE",
"464 235 OFFCURVE",
"465 250 CURVE",
"465 399 OFFCURVE",
"375 500 OFFCURVE",
"250 500 CURVE SMOOTH",
"125 500 OFFCURVE",
"35 399 OFFCURVE",
"35 250 CURVE",
"35 101 OFFCURVE",
"126 0 OFFCURVE",
"250 0 CURVE SMOOTH",
"337 0 OFFCURVE",
"370 0 OFFCURVE",
"452 56 CURVE",
"398 119 LINE",
"353 87 OFFCURVE",
"320 80 OFFCURVE",
"250 80 CURVE SMOOTH",
"182 80 OFFCURVE",
"116 145 OFFCURVE",
"116 230 CURVE"
);
}
);
width = 500;
}
);
unicode = 0065;
},
{
glyphname = f;
lastChange = "2012-08-24 22:14:42 +0000";
layers = (
{
guideLines = (
{
angle = 90;
position = "{40, 800}";
},
{
angle = 90;
position = "{460, 800}";
},
{
angle = 90;
position = "{250, 800}";
},
{
angle = 0;
position = "{0, 250}";
}
);
layerId = "85308D4F-3C98-4E4B-A926-E3A24A251B96";
name = Regular;
paths = (
{
closed = 1;
nodes = (
"290 420 LINE",
"440 420 LINE",
"440 500 LINE",
"290 500 LINE",
"290 530 LINE",
"290 637 OFFCURVE",
"385 614 OFFCURVE",
"475 623 CURVE",
"432 700 LINE",
"304 700 OFFCURVE",
"210 668 OFFCURVE",
"210 530 CURVE",
"210 500 LINE",
"60 500 LINE",
"60 420 LINE",
"210 420 LINE",
"210 0 LINE",
"290 0 LINE"
);
}
);
width = 500;
}
);
unicode = 0066;
},
{
glyphname = g;
lastChange = "2012-12-01 00:37:56 +0000";
layers = (
{
anchors = (
{
name = top;
position = "{250, 500}";
}
);
guideLines = (
{
angle = 90;
position = "{40, 800}";
},
{
angle = 90;
position = "{460, 800}";
},
{
angle = 90;
position = "{250, 800}";
},
{
angle = 0;
position = "{0, 250}";
}
);
layerId = "85308D4F-3C98-4E4B-A926-E3A24A251B96";
name = Regular;
paths = (
{
closed = 0;
nodes = (
"460 250 LINE"
);
},
{
closed = 1;
nodes = (
"180 80 OFFCURVE",
"120 150 OFFCURVE",
"120 250 CURVE",
"120 350 OFFCURVE",
"180 420 OFFCURVE",
"250 420 CURVE SMOOTH",
"320 420 OFFCURVE",
"380 350 OFFCURVE",
"380 250 CURVE SMOOTH",
"380 150 OFFCURVE",
"320 80 OFFCURVE",
"250 80 CURVE SMOOTH"
);
},
{
closed = 1;
nodes = (
"380 0 LINE",
"380 -50 OFFCURVE",
"320 -100 OFFCURVE",
"250 -100 CURVE SMOOTH",
"200 -100 OFFCURVE",
"156 -85 OFFCURVE",
"134 -65 CURVE",
"79 -125 LINE",
"109 -164 OFFCURVE",
"155 -180 OFFCURVE",
"250 -180 CURVE SMOOTH",
"400 -180 OFFCURVE",
"460 -85 OFFCURVE",
"460 0 CURVE",
"460 500 LINE",
"380 500 LINE",
"380 452 LINE",
"346 483 OFFCURVE",
"301 500 OFFCURVE",
"250 500 CURVE SMOOTH",
"126 500 OFFCURVE",
"40 399 OFFCURVE",
"40 250 CURVE SMOOTH",
"40 101 OFFCURVE",
"126 0 OFFCURVE",
"250 0 CURVE SMOOTH",
"303 0 OFFCURVE",
"345 12 OFFCURVE",
"380 45 CURVE"
);
}
);
width = 500;
}
);
unicode = 0067;
},
{
glyphname = h;
lastChange = "2012-12-01 00:37:56 +0000";
layers = (
{
anchors = (
{
name = center;
position = "{250, 250}";
},
{
name = top;
position = "{250, 500}";
}
);
guideLines = (
{
angle = 90;
position = "{40, 800}";
},
{
angle = 90;
position = "{460, 800}";
},
{
angle = 90;
position = "{250, 800}";
},
{
angle = 0;
position = "{-50, 250}";
}
);
layerId = "85308D4F-3C98-4E4B-A926-E3A24A251B96";
name = Regular;
paths = (
{
closed = 0;
nodes = (
"40 250 LINE"
);
},
{
closed = 1;
nodes = (
"460 250 LINE",
"460 399 OFFCURVE",
"374 500 OFFCURVE",
"250 500 CURVE SMOOTH",
"199 500 OFFCURVE",
"154 483 OFFCURVE",
"120 452 CURVE",
"120 700 LINE",
"40 700 LINE",
"40 0 LINE",
"120 0 LINE",
"120 250 LINE",
"120 350 OFFCURVE",
"180 420 OFFCURVE",
"250 420 CURVE SMOOTH",
"320 420 OFFCURVE",
"380 350 OFFCURVE",
"380 250 CURVE",
"380 0 LINE",
"460 0 LINE"
);
}
);
width = 500;
}
);
unicode = 0068;
},
{
glyphname = i;
lastChange = "2012-08-22 22:11:40 +0000";
layers = (
{
guideLines = (
{
angle = 90;
position = "{250, 800}";
},
{
angle = 0;
position = "{-50, 250}";
}
);
layerId = "85308D4F-3C98-4E4B-A926-E3A24A251B96";
name = Regular;
paths = (
{
closed = 1;
nodes = (
"280 590 OFFCURVE",
"305 615 OFFCURVE",
"305 645 CURVE SMOOTH",
"305 675 OFFCURVE",
"280 700 OFFCURVE",
"250 700 CURVE SMOOTH",
"220 700 OFFCURVE",
"195 675 OFFCURVE",
"195 645 CURVE SMOOTH",
"195 615 OFFCURVE",
"220 590 OFFCURVE",
"250 590 CURVE SMOOTH"
);
},
{
closed = 1;
nodes = (
"210 0 LINE",
"290 0 LINE",
"290 500 LINE",
"210 500 LINE"
);
}
);
width = 500;
}
);
unicode = 0069;
},
{
glyphname = j;
lastChange = "2012-08-24 00:39:41 +0000";
layers = (
{
guideLines = (
{
angle = 0;
position = "{-50, 250}";
},
{
angle = 90;
position = "{250, 800}";
}
);
layerId = "85308D4F-3C98-4E4B-A926-E3A24A251B96";
name = Regular;
paths = (
{
closed = 1;
nodes = (
"210 20 LINE",
"210 -62 OFFCURVE",
"163 -100 OFFCURVE",
"40 -100 CURVE",
"40 -180 LINE",
"228 -180 OFFCURVE",
"290 -130 OFFCURVE",
"290 20 CURVE",
"290 500 LINE",
"210 500 LINE"
);
},
{
closed = 1;
nodes = (
"280 590 OFFCURVE",
"305 615 OFFCURVE",
"305 645 CURVE SMOOTH",
"305 675 OFFCURVE",
"280 700 OFFCURVE",
"250 700 CURVE SMOOTH",
"220 700 OFFCURVE",
"195 675 OFFCURVE",
"195 645 CURVE SMOOTH",
"195 615 OFFCURVE",
"220 590 OFFCURVE",
"250 590 CURVE SMOOTH"
);
}
);
width = 500;
}
);
unicode = 006A;
},
{
glyphname = k;
lastChange = "2012-12-01 00:37:56 +0000";
layers = (
{
anchors = (
{
name = bottom;
position = "{250, 0}";
}
);
guideLines = (
{
angle = 90;
position = "{40, 800}";
},
{
angle = 90;
position = "{460, 800}";
},
{
angle = 90;
position = "{250, 800}";
},
{
angle = 0;
position = "{0, 250}";
}
);
layerId = "85308D4F-3C98-4E4B-A926-E3A24A251B96";
name = Regular;
paths = (
{
closed = 1;
nodes = (
"40 0 LINE",
"120 0 LINE",
"120 190 LINE",
"159 223 LINE",
"410 0 LINE",
"460 50 LINE",
"211 266 LINE",
"460 450 LINE",
"410 500 LINE",
"120 290 LINE",
"120 700 LINE",
"40 700 LINE"
);
}
);
width = 500;
}
);
unicode = 006B;
},
{
glyphname = l;
lastChange = "2012-12-01 00:37:56 +0000";
layers = (
{
anchors = (
{
name = bottom;
position = "{250, 0}";
},
{
name = top;
position = "{250, 500}";
},
{
name = topright;
position = "{480, 500}";
}
);
guideLines = (
{
angle = 90;
position = "{40, 800}";
},
{
angle = 90;
position = "{460, 800}";
},
{
angle = 90;
position = "{250, 800}";
},
{
angle = 0;
position = "{0, 250}";
}
);
layerId = "85308D4F-3C98-4E4B-A926-E3A24A251B96";
name = Regular;
paths = (
{
closed = 1;
nodes = (
"210 0 LINE",
"290 0 LINE",
"290 700 LINE",
"210 700 LINE"
);
}
);
width = 500;
}
);
unicode = 006C;
},
{
glyphname = m;
lastChange = "2012-08-24 00:45:23 +0000";
layers = (
{
guideLines = (
{
angle = 90;
position = "{40, 800}";
},
{
angle = 90;
position = "{460, 800}";
},
{
angle = 0;
position = "{-50, 250}";
},
{
angle = 90;
position = "{250, 800}";
}
);
layerId = "85308D4F-3C98-4E4B-A926-E3A24A251B96";
name = Regular;
paths = (
{
closed = 1;
nodes = (
"40 0 LINE",
"120 0 LINE",
"120 250 LINE",
"120 355 OFFCURVE",
"130 410 OFFCURVE",
"165 410 CURVE",
"200 410 OFFCURVE",
"210 355 OFFCURVE",
"210 250 CURVE",
"210 0 LINE",
"290 0 LINE",
"290 250 LINE",
"290 355 OFFCURVE",
"300 410 OFFCURVE",
"335 410 CURVE",
"370 410 OFFCURVE",
"380 355 OFFCURVE",
"380 250 CURVE",
"380 0 LINE",
"460 0 LINE",
"460 250 LINE",
"460 355 OFFCURVE",
"455 500 OFFCURVE",
"335 500 CURVE",
"255 500 OFFCURVE",
"250 430 OFFCURVE",
"250 430 CURVE",
"250 430 OFFCURVE",
"245 500 OFFCURVE",
"165 500 CURVE",
"127 499 OFFCURVE",
"120 475 OFFCURVE",
"120 475 CURVE",
"120 500 LINE",
"40 500 LINE"
);
}
);
width = 500;
}
);
unicode = 006D;
},
{
glyphname = n;
lastChange = "2012-12-01 00:37:56 +0000";
layers = (
{
anchors = (
{
name = bottom;
position = "{250, 0}";
},
{
name = top;
position = "{250, 500}";
}
);
guideLines = (
{
angle = 0;
position = "{-50, 250}";
}
);
layerId = "85308D4F-3C98-4E4B-A926-E3A24A251B96";
name = Regular;
paths = (
{
closed = 1;
nodes = (
"40 0 LINE",
"120 0 LINE",
"120 250 LINE",
"120 385 OFFCURVE",
"195 420 OFFCURVE",
"250 420 CURVE",
"305 420 OFFCURVE",
"380 395 OFFCURVE",
"380 250 CURVE",
"380 0 LINE",
"460 0 LINE",
"460 250 LINE",
"460 395 OFFCURVE",
"390 500 OFFCURVE",
"250 500 CURVE",
"150 500 OFFCURVE",
"120 445 OFFCURVE",
"120 445 CURVE",
"120 500 LINE",
"40 500 LINE"
);
}
);
width = 500;
}
);
unicode = 006E;
},
{
glyphname = o;
lastChange = "2012-12-01 00:37:56 +0000";
layers = (
{
anchors = (
{
name = top;
position = "{250, 500}";
}
);
guideLines = (
{
angle = 90;
position = "{250, 800}";
},
{
angle = 0;
position = "{-50, 250}";
}
);
layerId = "85308D4F-3C98-4E4B-A926-E3A24A251B96";
name = Regular;
paths = (
{
closed = 1;
nodes = (
"374 0 OFFCURVE",
"465 101 OFFCURVE",
"465 250 CURVE SMOOTH",
"465 399 OFFCURVE",
"374 500 OFFCURVE",
"250 500 CURVE SMOOTH",
"126 500 OFFCURVE",
"35 399 OFFCURVE",
"35 250 CURVE SMOOTH",
"35 101 OFFCURVE",
"126 0 OFFCURVE",
"250 0 CURVE SMOOTH"
);
},
{
closed = 1;
nodes = (
"180 80 OFFCURVE",
"115 150 OFFCURVE",
"115 250 CURVE SMOOTH",
"115 350 OFFCURVE",
"180 420 OFFCURVE",
"250 420 CURVE SMOOTH",
"320 420 OFFCURVE",
"385 350 OFFCURVE",
"385 250 CURVE",
"385 150 OFFCURVE",
"320 80 OFFCURVE",
"250 80 CURVE SMOOTH"
);
}
);
width = 500;
}
);
unicode = 006F;
},
{
glyphname = p;
lastChange = "2012-08-25 21:43:05 +0000";
layers = (
{
guideLines = (
{
angle = 90;
position = "{40, 800}";
},
{
angle = 90;
position = "{460, 800}";
},
{
angle = 90;
position = "{250, 800}";
},
{
angle = 0;
position = "{0, 250}";
}
);
layerId = "85308D4F-3C98-4E4B-A926-E3A24A251B96";
name = Regular;
paths = (
{
closed = 0;
nodes = (
"40 250 LINE"
);
},
{
closed = 1;
nodes = (
"180 80 OFFCURVE",
"120 150 OFFCURVE",
"120 250 CURVE SMOOTH",
"120 350 OFFCURVE",
"180 420 OFFCURVE",
"250 420 CURVE SMOOTH",
"320 420 OFFCURVE",
"380 350 OFFCURVE",
"380 250 CURVE",
"380 150 OFFCURVE",
"320 80 OFFCURVE",
"250 80 CURVE SMOOTH"
);
},
{
closed = 1;
nodes = (
"155 12 OFFCURVE",
"197 0 OFFCURVE",
"250 0 CURVE SMOOTH",
"374 0 OFFCURVE",
"460 101 OFFCURVE",
"460 250 CURVE SMOOTH",
"460 399 OFFCURVE",
"374 500 OFFCURVE",
"250 500 CURVE SMOOTH",
"199 500 OFFCURVE",
"154 483 OFFCURVE",
"120 452 CURVE",
"120 500 LINE",
"40 500 LINE",
"40 -180 LINE",
"120 -180 LINE",
"120 45 LINE"
);
}
);
width = 500;
}
);
unicode = 0070;
},
{
glyphname = q;
lastChange = "2012-08-26 22:33:34 +0000";
layers = (
{
guideLines = (
{
angle = 90;
position = "{460, 800}";
},
{
angle = 90;
position = "{40, 800}";
},
{
angle = 90;
position = "{250, 800}";
},
{
angle = 0;
position = "{500, 250}";
}
);
layerId = "85308D4F-3C98-4E4B-A926-E3A24A251B96";
name = Regular;
paths = (
{
closed = 0;
nodes = (
"460 250 LINE"
);
},
{
closed = 1;
nodes = (
"180 80 OFFCURVE",
"120 150 OFFCURVE",
"120 250 CURVE",
"120 350 OFFCURVE",
"180 420 OFFCURVE",
"250 420 CURVE SMOOTH",
"320 420 OFFCURVE",
"380 350 OFFCURVE",
"380 250 CURVE SMOOTH",
"380 150 OFFCURVE",
"320 80 OFFCURVE",
"250 80 CURVE SMOOTH"
);
},
{
closed = 1;
nodes = (
"380 -65 LINE",
"380 -128 OFFCURVE",
"441 -180 OFFCURVE",
"520 -180 CURVE",
"520 -100 LINE",
"461 -100 OFFCURVE",
"460 -60 OFFCURVE",
"460 0 CURVE",
"460 500 LINE",
"380 500 LINE",
"380 452 LINE",
"346 483 OFFCURVE",
"301 500 OFFCURVE",
"250 500 CURVE SMOOTH",
"126 500 OFFCURVE",
"40 399 OFFCURVE",
"40 250 CURVE SMOOTH",
"40 101 OFFCURVE",
"126 0 OFFCURVE",
"250 0 CURVE SMOOTH",
"303 0 OFFCURVE",
"345 12 OFFCURVE",
"380 45 CURVE"
);
}
);
width = 500;
}
);
unicode = 0071;
},
{
glyphname = r;
lastChange = "2012-12-01 00:37:56 +0000";
layers = (
{
anchors = (
{
name = bottom;
position = "{250, 0}";
},
{
name = top;
position = "{250, 500}";
}
);
guideLines = (
{
angle = 90;
position = "{40, 800}";
},
{
angle = 90;
position = "{460, 800}";
},
{
angle = 0;
position = "{-50, 250}";
},
{
angle = 90;
position = "{250, 800}";
}
);
layerId = "85308D4F-3C98-4E4B-A926-E3A24A251B96";
name = Regular;
paths = (
{
closed = 1;
nodes = (
"40 0 LINE",
"120 0 LINE",
"120 340 LINE",
"280 480 OFFCURVE",
"345 435 OFFCURVE",
"409 365 CURVE",
"460 420 LINE",
"375 510 OFFCURVE",
"280 570 OFFCURVE",
"120 440 CURVE",
"120 500 LINE",
"40 500 LINE"
);
}
);
width = 500;
}
);
unicode = 0072;
},
{
glyphname = s;
lastChange = "2012-12-01 00:37:56 +0000";
layers = (
{
anchors = (
{
name = bottom;
position = "{250, 0}";
},
{
name = top;
position = "{250, 500}";
}
);
guideLines = (
{
angle = 90;
position = "{40, 800}";
},
{
angle = 90;
position = "{460, 800}";
},
{
angle = 90;
position = "{250, 800}";
},
{
angle = 0;
position = "{0, 250}";
}
);
layerId = "85308D4F-3C98-4E4B-A926-E3A24A251B96";
name = Regular;
paths = (
{
closed = 1;
nodes = (
"380 220 OFFCURVE",
"40 210 OFFCURVE",
"40 365 CURVE",
"40 515 OFFCURVE",
"330 555 OFFCURVE",
"460 420 CURVE",
"413 373 LINE",
"330 455 OFFCURVE",
"120 435 OFFCURVE",
"120 365 CURVE SMOOTH",
"120 280 OFFCURVE",
"460 290 OFFCURVE",
"460 135 CURVE",
"460 -18 OFFCURVE",
"170 -55 OFFCURVE",
"40 80 CURVE",
"97 127 LINE",
"170 35 OFFCURVE",
"380 65 OFFCURVE",
"380 135 CURVE"
);
}
);
width = 500;
}
);
unicode = 0073;
},
{
glyphname = t;
lastChange = "2012-12-01 00:37:56 +0000";
layers = (
{
anchors = (
{
name = bottom;
position = "{250, 0}";
},
{
name = center;
position = "{250, 250}";
}
);
guideLines = (
{
angle = 90;
position = "{40, 800}";
},
{
angle = 90;
position = "{460, 800}";
},
{
angle = 90;
position = "{250, 800}";
},
{
angle = 0;
position = "{0, 250}";
}
);
layerId = "85308D4F-3C98-4E4B-A926-E3A24A251B96";
name = Regular;
paths = (
{
closed = 1;
nodes = (
"180 700 LINE",
"180 500 LINE",
"40 500 LINE",
"40 420 LINE",
"180 420 LINE",
"180 250 LINE",
"180 22 OFFCURVE",
"309 0 OFFCURVE",
"417 0 CURVE",
"460 77 LINE",
"370 76 OFFCURVE",
"260 83 OFFCURVE",
"260 250 CURVE",
"260 420 LINE",
"400 420 LINE",
"400 500 LINE",
"260 500 LINE",
"260 700 LINE"
);
}
);
width = 500;
}
);
unicode = 0074;
},
{
glyphname = u;
lastChange = "2012-12-01 00:37:56 +0000";
layers = (
{
anchors = (
{
name = ogonek;
position = "{450, 10}";
},
{
name = top;
position = "{250, 500}";
}
);
guideLines = (
{
angle = 90;
position = "{40, 800}";
},
{
angle = 90;
position = "{460, 800}";
},
{
angle = 90;
position = "{250, 800}";
},
{
angle = 0;
position = "{0, 250}";
}
);
layerId = "85308D4F-3C98-4E4B-A926-E3A24A251B96";
name = Regular;
paths = (
{
closed = 1;
nodes = (
"460 500 LINE",
"380 500 LINE",
"380 250 LINE",
"380 115 OFFCURVE",
"305 80 OFFCURVE",
"250 80 CURVE",
"195 80 OFFCURVE",
"120 105 OFFCURVE",
"120 250 CURVE",
"120 500 LINE",
"40 500 LINE",
"40 250 LINE",
"40 105 OFFCURVE",
"110 0 OFFCURVE",
"250 0 CURVE",
"350 0 OFFCURVE",
"380 55 OFFCURVE",
"380 55 CURVE",
"380 0 LINE",
"460 0 LINE"
);
}
);
width = 500;
}
);
unicode = 0075;
},
{
glyphname = v;
lastChange = "2012-08-25 02:52:48 +0000";
layers = (
{
guideLines = (
{
angle = 90;
position = "{40, 800}";
},
{
angle = 90;
position = "{460, 800}";
},
{
angle = 90;
position = "{250, 800}";
},
{
angle = 0;
position = "{0, 250}";
}
);
layerId = "85308D4F-3C98-4E4B-A926-E3A24A251B96";
name = Regular;
paths = (
{
closed = 1;
nodes = (
"210 0 LINE",
"290 0 LINE",
"460 500 LINE",
"380 500 LINE",
"250 100 LINE",
"120 500 LINE",
"40 500 LINE"
);
}
);
width = 500;
}
);
unicode = 0076;
},
{
glyphname = w;
lastChange = "2012-12-01 00:37:56 +0000";
layers = (
{
anchors = (
{
name = top;
position = "{250, 500}";
}
);
guideLines = (
{
angle = 90;
position = "{40, 800}";
},
{
angle = 90;
position = "{460, 800}";
},
{
angle = 90;
position = "{250, 800}";
},
{
angle = 0;
position = "{0, 250}";
}
);
layerId = "85308D4F-3C98-4E4B-A926-E3A24A251B96";
name = Regular;
paths = (
{
closed = 1;
nodes = (
"125 0 LINE",
"205 0 LINE",
"250 310 LINE",
"295 0 LINE",
"375 0 LINE",
"460 500 LINE",
"380 500 LINE",
"335 190 LINE",
"290 500 LINE",
"210 500 LINE",
"165 190 LINE",
"120 500 LINE",
"40 500 LINE"
);
}
);
width = 500;
}
);
unicode = 0077;
},
{
glyphname = x;
lastChange = "2012-08-25 05:03:42 +0000";
layers = (
{
guideLines = (
{
angle = 90;
position = "{40, 800}";
},
{
angle = 90;
position = "{460, 800}";
},
{
angle = 90;
position = "{250, 800}";
},
{
angle = 0;
position = "{0, 250}";
}
);
layerId = "85308D4F-3C98-4E4B-A926-E3A24A251B96";
name = Regular;
paths = (
{
closed = 1;
nodes = (
"130 500 LINE",
"250 310 LINE",
"370 500 LINE",
"460 500 LINE",
"300 250 LINE",
"460 0 LINE",
"370 0 LINE",
"250 190 LINE",
"130 0 LINE",
"40 0 LINE",
"200 250 LINE",
"40 500 LINE"
);
}
);
width = 500;
}
);
unicode = 0078;
},
{
glyphname = y;
lastChange = "2012-12-01 00:37:56 +0000";
layers = (
{
anchors = (
{
name = top;
position = "{250, 500}";
}
);
guideLines = (
{
angle = 90;
position = "{40, 800}";
},
{
angle = 90;
position = "{460, 800}";
},
{
angle = 90;
position = "{250, 800}";
},
{
angle = 0;
position = "{0, 250}";
}
);
layerId = "85308D4F-3C98-4E4B-A926-E3A24A251B96";
name = Regular;
paths = (
{
closed = 1;
nodes = (
"210 0 LINE",
"210 -58 OFFCURVE",
"154 -100 OFFCURVE",
"60 -100 CURVE",
"25 -180 LINE",
"236 -180 OFFCURVE",
"258 -96 OFFCURVE",
"290 0 CURVE",
"460 500 LINE",
"380 500 LINE",
"250 100 LINE",
"120 500 LINE",
"40 500 LINE"
);
}
);
width = 500;
}
);
unicode = 0079;
},
{
glyphname = z;
lastChange = "2012-12-01 00:37:56 +0000";
layers = (
{
anchors = (
{
name = top;
position = "{250, 500}";
}
);
guideLines = (
{
angle = 90;
position = "{40, 800}";
},
{
angle = 90;
position = "{460, 800}";
},
{
angle = 90;
position = "{250, 800}";
},
{
angle = 0;
position = "{0, 250}";
}
);
layerId = "85308D4F-3C98-4E4B-A926-E3A24A251B96";
name = Regular;
paths = (
{
closed = 1;
nodes = (
"40 420 LINE",
"360 420 LINE",
"40 80 LINE",
"40 0 LINE",
"460 0 LINE",
"460 80 LINE",
"140 80 LINE",
"460 419 LINE",
"460 500 LINE",
"40 500 LINE"
);
}
);
width = 500;
}
);
unicode = 007A;
},
{
glyphname = zero;
lastChange = "2012-08-24 19:10:36 +0000";
layers = (
{
guideLines = (
{
angle = 90;
position = "{40, 800}";
},
{
angle = 90;
position = "{460, 800}";
},
{
angle = 90;
position = "{250, 800}";
},
{
angle = 0;
position = "{0, 350}";
}
);
layerId = "85308D4F-3C98-4E4B-A926-E3A24A251B96";
name = Regular;
paths = (
{
closed = 1;
nodes = (
"370 0 OFFCURVE",
"460 130 OFFCURVE",
"460 350 CURVE SMOOTH",
"460 570 OFFCURVE",
"370 700 OFFCURVE",
"250 700 CURVE SMOOTH",
"130 700 OFFCURVE",
"40 570 OFFCURVE",
"40 350 CURVE SMOOTH",
"40 130 OFFCURVE",
"130 0 OFFCURVE",
"250 0 CURVE SMOOTH"
);
},
{
closed = 1;
nodes = (
"180 80 OFFCURVE",
"120 220 OFFCURVE",
"120 350 CURVE SMOOTH",
"120 480 OFFCURVE",
"180 620 OFFCURVE",
"250 620 CURVE SMOOTH",
"320 620 OFFCURVE",
"380 480 OFFCURVE",
"380 350 CURVE SMOOTH",
"380 220 OFFCURVE",
"320 80 OFFCURVE",
"250 80 CURVE SMOOTH"
);
},
{
closed = 1;
nodes = (
"285 285 OFFCURVE",
"315 315 OFFCURVE",
"315 350 CURVE SMOOTH",
"315 385 OFFCURVE",
"285 415 OFFCURVE",
"250 415 CURVE SMOOTH",
"215 415 OFFCURVE",
"185 385 OFFCURVE",
"185 350 CURVE",
"185 315 OFFCURVE",
"215 285 OFFCURVE",
"250 285 CURVE SMOOTH"
);
}
);
width = 500;
}
);
unicode = 0030;
},
{
glyphname = one;
lastChange = "2012-08-23 19:30:59 +0000";
layers = (
{
guideLines = (
{
angle = 90;
position = "{40, 800}";
},
{
angle = 90;
position = "{460, 800}";
},
{
angle = 90;
position = "{250, 800}";
},
{
angle = 0;
position = "{0, 250}";
}
);
layerId = "85308D4F-3C98-4E4B-A926-E3A24A251B96";
name = Regular;
paths = (
{
closed = 1;
nodes = (
"290 0 LINE",
"210 0 LINE",
"210 600 LINE",
"210 600 OFFCURVE",
"191 571 OFFCURVE",
"145 544 CURVE",
"96 515 OFFCURVE",
"40 510 OFFCURVE",
"40 510 CURVE",
"40 600 LINE",
"40 600 OFFCURVE",
"76 595 OFFCURVE",
"124 624 CURVE",
"177 655 OFFCURVE",
"210 700 OFFCURVE",
"210 700 CURVE",
"290 700 LINE"
);
}
);
width = 500;
}
);
unicode = 0031;
},
{
glyphname = two;
lastChange = "2012-08-25 07:11:05 +0000";
layers = (
{
guideLines = (
{
angle = 90;
position = "{40, 800}";
},
{
angle = 90;
position = "{460, 800}";
},
{
angle = 90;
position = "{250, 800}";
},
{
angle = 0;
position = "{0, 350}";
}
);
layerId = "85308D4F-3C98-4E4B-A926-E3A24A251B96";
name = Regular;
paths = (
{
closed = 1;
nodes = (
"150 600 OFFCURVE",
"180 620 OFFCURVE",
"250 620 CURVE",
"320 620 OFFCURVE",
"380 590 OFFCURVE",
"380 500 CURVE",
"380 380 OFFCURVE",
"40 215 OFFCURVE",
"40 80 CURVE",
"40 0 LINE",
"460 0 LINE",
"460 80 LINE",
"130 80 LINE",
"130 205 OFFCURVE",
"460 330 OFFCURVE",
"460 500 CURVE",
"460 660 OFFCURVE",
"335 700 OFFCURVE",
"250 700 CURVE",
"165 700 OFFCURVE",
"100 660 OFFCURVE",
"40 600 CURVE",
"90 540 LINE"
);
}
);
width = 500;
}
);
unicode = 0032;
},
{
glyphname = three;
lastChange = "2012-08-25 07:30:09 +0000";
layers = (
{
guideLines = (
{
angle = 90;
position = "{40, 800}";
},
{
angle = 90;
position = "{460, 800}";
},
{
angle = 90;
position = "{250, 800}";
},
{
angle = 0;
position = "{0, 350}";
}
);
layerId = "85308D4F-3C98-4E4B-A926-E3A24A251B96";
name = Regular;
paths = (
{
closed = 1;
nodes = (
"460 620 LINE",
"460 700 LINE",
"70 700 LINE",
"70 620 LINE",
"350 620 LINE",
"150 440 LINE",
"150 350 LINE",
"182 375 OFFCURVE",
"215 380 OFFCURVE",
"250 380 CURVE SMOOTH",
"315 380 OFFCURVE",
"385 330 OFFCURVE",
"385 230 CURVE SMOOTH",
"385 130 OFFCURVE",
"315 80 OFFCURVE",
"250 80 CURVE SMOOTH",
"225 80 OFFCURVE",
"165 85 OFFCURVE",
"97 147 CURVE",
"40 90 LINE",
"125 0 OFFCURVE",
"210 0 OFFCURVE",
"250 0 CURVE SMOOTH",
"375 0 OFFCURVE",
"465 81 OFFCURVE",
"465 230 CURVE SMOOTH",
"465 379 OFFCURVE",
"351 455 OFFCURVE",
"270 455 CURVE"
);
}
);
width = 500;
}
);
unicode = 0033;
},
{
glyphname = four;
lastChange = "2012-08-25 23:34:26 +0000";
layers = (
{
guideLines = (
{
angle = 90;
position = "{40, 800}";
},
{
angle = 90;
position = "{460, 800}";
},
{
angle = 90;
position = "{250, 800}";
},
{
angle = 0;
position = "{0, 350}";
}
);
layerId = "85308D4F-3C98-4E4B-A926-E3A24A251B96";
name = Regular;
paths = (
{
closed = 1;
nodes = (
"40 270 LINE",
"280 700 LINE",
"360 700 LINE",
"360 270 LINE",
"460 270 LINE",
"460 190 LINE",
"360 190 LINE",
"360 0 LINE",
"280 0 LINE",
"280 190 LINE",
"40 190 LINE"
);
},
{
closed = 1;
nodes = (
"130 270 LINE",
"280 270 LINE",
"280 540 LINE"
);
}
);
width = 500;
}
);
unicode = 0034;
},
{
glyphname = five;
lastChange = "2012-08-25 19:33:55 +0000";
layers = (
{
guideLines = (
{
angle = 90;
position = "{40, 800}";
},
{
angle = 90;
position = "{460, 800}";
},
{
angle = 90;
position = "{250, 800}";
},
{
angle = 0;
position = "{0, 350}";
}
);
layerId = "85308D4F-3C98-4E4B-A926-E3A24A251B96";
name = Regular;
paths = (
{
closed = 1;
nodes = (
"120 620 LINE",
"460 620 LINE",
"460 700 LINE",
"40 700 LINE",
"40 620 LINE",
"40 380 LINE",
"97 323 LINE",
"165 385 OFFCURVE",
"225 390 OFFCURVE",
"250 390 CURVE SMOOTH",
"315 390 OFFCURVE",
"385 335 OFFCURVE",
"385 235 CURVE SMOOTH",
"385 135 OFFCURVE",
"315 80 OFFCURVE",
"250 80 CURVE SMOOTH",
"225 80 OFFCURVE",
"165 85 OFFCURVE",
"97 147 CURVE",
"40 90 LINE",
"125 0 OFFCURVE",
"210 0 OFFCURVE",
"250 0 CURVE SMOOTH",
"375 0 OFFCURVE",
"465 86 OFFCURVE",
"465 235 CURVE SMOOTH",
"465 384 OFFCURVE",
"375 470 OFFCURVE",
"250 470 CURVE SMOOTH",
"219 470 OFFCURVE",
"140 449 OFFCURVE",
"120 435 CURVE"
);
}
);
width = 500;
}
);
unicode = 0035;
},
{
glyphname = six;
lastChange = "2012-08-25 02:27:35 +0000";
layers = (
{
guideLines = (
{
angle = 90;
position = "{40, 800}";
},
{
angle = 90;
position = "{460, 800}";
},
{
angle = 90;
position = "{250, 800}";
},
{
angle = 0;
position = "{0, 350}";
}
);
layerId = "85308D4F-3C98-4E4B-A926-E3A24A251B96";
name = Regular;
paths = (
{
closed = 1;
nodes = (
"354 0 OFFCURVE",
"460 86 OFFCURVE",
"460 215 CURVE SMOOTH",
"460 344 OFFCURVE",
"374 430 OFFCURVE",
"250 430 CURVE SMOOTH",
"146 430 OFFCURVE",
"122 378 OFFCURVE",
"122 379 CURVE SMOOTH",
"140 614 OFFCURVE",
"278 659 OFFCURVE",
"387 601 CURVE",
"441 658 LINE",
"250 769 OFFCURVE",
"40 662 OFFCURVE",
"40 330 CURVE",
"40 215 LINE",
"40 86 OFFCURVE",
"146 0 OFFCURVE",
"250 0 CURVE SMOOTH"
);
},
{
closed = 1;
nodes = (
"190 80 OFFCURVE",
"120 125 OFFCURVE",
"120 215 CURVE SMOOTH",
"120 305 OFFCURVE",
"190 350 OFFCURVE",
"250 350 CURVE SMOOTH",
"310 350 OFFCURVE",
"380 305 OFFCURVE",
"380 215 CURVE",
"380 125 OFFCURVE",
"310 80 OFFCURVE",
"250 80 CURVE SMOOTH"
);
}
);
width = 500;
}
);
unicode = 0036;
},
{
glyphname = seven;
lastChange = "2012-08-24 23:47:14 +0000";
layers = (
{
guideLines = (
{
angle = 90;
position = "{40, 800}";
},
{
angle = 90;
position = "{460, 800}";
},
{
angle = 90;
position = "{250, 800}";
},
{
angle = 0;
position = "{0, 350}";
}
);
layerId = "85308D4F-3C98-4E4B-A926-E3A24A251B96";
name = Regular;
paths = (
{
closed = 1;
nodes = (
"130 0 LINE",
"40 0 LINE",
"330 620 LINE",
"40 620 LINE",
"40 700 LINE",
"460 700 LINE"
);
}
);
width = 500;
}
);
unicode = 0037;
},
{
glyphname = eight;
lastChange = "2012-08-25 00:01:06 +0000";
layers = (
{
guideLines = (
{
angle = 90;
position = "{40, 800}";
},
{
angle = 90;
position = "{460, 800}";
},
{
angle = 90;
position = "{250, 800}";
},
{
angle = 0;
position = "{0, 350}";
},
{
angle = 0;
position = "{0, 195}";
},
{
angle = 0;
position = "{0, 505}";
}
);
layerId = "85308D4F-3C98-4E4B-A926-E3A24A251B96";
name = Regular;
paths = (
{
closed = 0;
nodes = (
"250 310 LINE"
);
},
{
closed = 1;
nodes = (
"190 390 OFFCURVE",
"120 425 OFFCURVE",
"120 505 CURVE SMOOTH",
"120 585 OFFCURVE",
"190 620 OFFCURVE",
"250 620 CURVE SMOOTH",
"310 620 OFFCURVE",
"380 585 OFFCURVE",
"380 505 CURVE",
"380 425 OFFCURVE",
"310 390 OFFCURVE",
"250 390 CURVE SMOOTH"
);
},
{
closed = 1;
nodes = (
"190 80 OFFCURVE",
"120 115 OFFCURVE",
"120 195 CURVE SMOOTH",
"120 275 OFFCURVE",
"190 310 OFFCURVE",
"250 310 CURVE SMOOTH",
"310 310 OFFCURVE",
"380 275 OFFCURVE",
"380 195 CURVE",
"380 115 OFFCURVE",
"310 80 OFFCURVE",
"250 80 CURVE SMOOTH"
);
},
{
closed = 1;
nodes = (
"434 382 OFFCURVE",
"460 434 OFFCURVE",
"460 505 CURVE SMOOTH",
"460 634 OFFCURVE",
"354 700 OFFCURVE",
"250 700 CURVE SMOOTH",
"146 700 OFFCURVE",
"40 634 OFFCURVE",
"40 505 CURVE SMOOTH",
"40 435 OFFCURVE",
"67 383 OFFCURVE",
"110 350 CURVE",
"65 318 OFFCURVE",
"40 267 OFFCURVE",
"40 195 CURVE SMOOTH",
"40 66 OFFCURVE",
"146 0 OFFCURVE",
"250 0 CURVE SMOOTH",
"354 0 OFFCURVE",
"460 66 OFFCURVE",
"460 195 CURVE SMOOTH",
"460 269 OFFCURVE",
"438 318 OFFCURVE",
"390 350 CURVE"
);
},
{
closed = 0;
nodes = (
"250 390 LINE"
);
}
);
width = 500;
}
);
unicode = 0038;
},
{
glyphname = nine;
lastChange = "2012-08-25 02:31:41 +0000";
layers = (
{
guideLines = (
{
angle = 90;
position = "{40, 800}";
},
{
angle = 90;
position = "{460, 800}";
},
{
angle = 90;
position = "{250, 800}";
},
{
angle = 0;
position = "{0, 350}";
},
{
angle = 90;
position = "{40, 800}";
},
{
angle = 90;
position = "{460, 800}";
},
{
angle = 90;
position = "{250, 800}";
},
{
angle = 0;
position = "{0, 350}";
}
);
layerId = "85308D4F-3C98-4E4B-A926-E3A24A251B96";
name = Regular;
paths = (
{
closed = 1;
nodes = (
"146 700 OFFCURVE",
"40 614 OFFCURVE",
"40 485 CURVE SMOOTH",
"40 356 OFFCURVE",
"126 270 OFFCURVE",
"250 270 CURVE SMOOTH",
"354 270 OFFCURVE",
"378 322 OFFCURVE",
"378 321 CURVE SMOOTH",
"360 86 OFFCURVE",
"222 41 OFFCURVE",
"113 99 CURVE",
"59 42 LINE",
"250 -69 OFFCURVE",
"460 38 OFFCURVE",
"460 370 CURVE",
"460 485 LINE",
"460 614 OFFCURVE",
"354 700 OFFCURVE",
"250 700 CURVE SMOOTH"
);
},
{
closed = 1;
nodes = (
"310 620 OFFCURVE",
"380 575 OFFCURVE",
"380 485 CURVE SMOOTH",
"380 395 OFFCURVE",
"310 350 OFFCURVE",
"250 350 CURVE SMOOTH",
"190 350 OFFCURVE",
"120 395 OFFCURVE",
"120 485 CURVE",
"120 575 OFFCURVE",
"190 620 OFFCURVE",
"250 620 CURVE SMOOTH"
);
}
);
width = 500;
}
);
unicode = 0039;
},
{
glyphname = asterisk;
lastChange = "2012-08-27 22:59:11 +0000";
layers = (
{
guideLines = (
{
angle = 90;
position = "{40, 800}";
},
{
angle = 90;
position = "{460, 800}";
},
{
angle = 90;
position = "{250, 800}";
},
{
angle = 0;
position = "{0, 250}";
}
);
layerId = "85308D4F-3C98-4E4B-A926-E3A24A251B96";
name = Regular;
paths = (
{
closed = 1;
nodes = (
"290 600 LINE",
"290 430 LINE",
"410 530 LINE",
"460 470 LINE",
"320 350 LINE",
"460 230 LINE",
"410 170 LINE",
"290 270 LINE",
"290 100 LINE",
"210 100 LINE",
"210 270 LINE",
"90 170 LINE",
"40 230 LINE",
"180 350 LINE",
"40 470 LINE",
"90 530 LINE",
"210 430 LINE",
"210 600 LINE"
);
}
);
width = 500;
}
);
unicode = 002A;
},
{
glyphname = backslash;
lastChange = "2012-08-22 22:09:56 +0000";
layers = (
{
guideLines = (
{
angle = 90;
position = "{50, 800}";
},
{
angle = 90;
position = "{450, 800}";
}
);
layerId = "85308D4F-3C98-4E4B-A926-E3A24A251B96";
name = Regular;
paths = (
{
closed = 1;
nodes = (
"130 780 LINE",
"450 -80 LINE",
"370 -80 LINE",
"50 780 LINE"
);
}
);
width = 500;
}
);
unicode = 005C;
},
{
glyphname = colon;
lastChange = "2012-08-25 01:14:15 +0000";
layers = (
{
guideLines = (
{
angle = 90;
position = "{40, 800}";
},
{
angle = 90;
position = "{460, 800}";
},
{
angle = 90;
position = "{250, 800}";
},
{
angle = 0;
position = "{0, 350}";
}
);
layerId = "85308D4F-3C98-4E4B-A926-E3A24A251B96";
name = Regular;
paths = (
{
closed = 1;
nodes = (
"207 500 OFFCURVE",
"175 468 OFFCURVE",
"175 425 CURVE SMOOTH",
"175 382 OFFCURVE",
"207 350 OFFCURVE",
"250 350 CURVE SMOOTH",
"293 350 OFFCURVE",
"325 382 OFFCURVE",
"325 425 CURVE SMOOTH",
"325 468 OFFCURVE",
"293 500 OFFCURVE",
"250 500 CURVE SMOOTH"
);
},
{
closed = 1;
nodes = (
"207 150 OFFCURVE",
"175 118 OFFCURVE",
"175 75 CURVE SMOOTH",
"175 32 OFFCURVE",
"207 0 OFFCURVE",
"250 0 CURVE SMOOTH",
"293 0 OFFCURVE",
"325 32 OFFCURVE",
"325 75 CURVE SMOOTH",
"325 118 OFFCURVE",
"293 150 OFFCURVE",
"250 150 CURVE SMOOTH"
);
}
);
width = 500;
}
);
unicode = 003A;
},
{
glyphname = comma;
lastChange = "2012-08-23 20:13:24 +0000";
layers = (
{
guideLines = (
{
angle = 90;
position = "{40, 800}";
},
{
angle = 90;
position = "{460, 800}";
},
{
angle = 90;
position = "{250, 800}";
},
{
angle = 0;
position = "{0, 250}";
}
);
layerId = "85308D4F-3C98-4E4B-A926-E3A24A251B96";
name = Regular;
paths = (
{
closed = 1;
nodes = (
"207 150 OFFCURVE",
"175 118 OFFCURVE",
"175 75 CURVE SMOOTH",
"175 32 OFFCURVE",
"206 0 OFFCURVE",
"250 0 CURVE SMOOTH",
"250 0 OFFCURVE",
"175 -150 OFFCURVE",
"175 -150 CURVE SMOOTH",
"175 -150 OFFCURVE",
"224 -138 OFFCURVE",
"259 -99 CURVE SMOOTH",
"314 -37 OFFCURVE",
"325 32 OFFCURVE",
"325 75 CURVE SMOOTH",
"325 118 OFFCURVE",
"293 150 OFFCURVE",
"250 150 CURVE SMOOTH"
);
}
);
width = 500;
}
);
unicode = 002C;
},
{
glyphname = exclam;
lastChange = "2012-08-23 19:48:29 +0000";
layers = (
{
layerId = "85308D4F-3C98-4E4B-A926-E3A24A251B96";
name = Regular;
paths = (
{
closed = 1;
nodes = (
"215 130 OFFCURVE",
"185 100 OFFCURVE",
"185 65 CURVE SMOOTH",
"185 30 OFFCURVE",
"215 0 OFFCURVE",
"250 0 CURVE SMOOTH",
"285 0 OFFCURVE",
"315 30 OFFCURVE",
"315 65 CURVE SMOOTH",
"315 100 OFFCURVE",
"285 130 OFFCURVE",
"250 130 CURVE SMOOTH"
);
},
{
closed = 1;
nodes = (
"290 200 LINE",
"320 700 LINE",
"180 700 LINE",
"210 200 LINE"
);
}
);
width = 500;
}
);
unicode = 0021;
},
{
glyphname = numbersign;
lastChange = "2012-08-25 07:40:32 +0000";
layers = (
{
guideLines = (
{
angle = 90;
position = "{40, 800}";
},
{
angle = 90;
position = "{460, 800}";
},
{
angle = 90;
position = "{250, 800}";
},
{
angle = 0;
position = "{0, 350}";
}
);
layerId = "85308D4F-3C98-4E4B-A926-E3A24A251B96";
name = Regular;
paths = (
{
closed = 1;
nodes = (
"200 670 LINE",
"200 500 LINE",
"300 500 LINE",
"300 670 LINE",
"380 670 LINE",
"380 500 LINE",
"460 500 LINE",
"460 420 LINE",
"380 420 LINE",
"380 280 LINE",
"460 280 LINE",
"460 200 LINE",
"380 200 LINE",
"380 30 LINE",
"300 30 LINE",
"300 200 LINE",
"200 200 LINE",
"200 30 LINE",
"120 30 LINE",
"120 200 LINE",
"40 200 LINE",
"40 280 LINE",
"120 280 LINE",
"120 420 LINE",
"40 420 LINE",
"40 500 LINE",
"120 500 LINE",
"120 670 LINE"
);
},
{
closed = 1;
nodes = (
"200 280 LINE",
"300 280 LINE",
"300 420 LINE",
"200 420 LINE"
);
}
);
width = 500;
}
);
unicode = 0023;
},
{
glyphname = period;
lastChange = "2012-08-23 20:00:19 +0000";
layers = (
{
layerId = "85308D4F-3C98-4E4B-A926-E3A24A251B96";
name = Regular;
paths = (
{
closed = 1;
nodes = (
"207 150 OFFCURVE",
"175 118 OFFCURVE",
"175 75 CURVE SMOOTH",
"175 32 OFFCURVE",
"207 0 OFFCURVE",
"250 0 CURVE SMOOTH",
"293 0 OFFCURVE",
"325 32 OFFCURVE",
"325 75 CURVE SMOOTH",
"325 118 OFFCURVE",
"293 150 OFFCURVE",
"250 150 CURVE SMOOTH"
);
}
);
width = 500;
}
);
unicode = 002E;
},
{
glyphname = question;
lastChange = "2012-08-25 19:36:34 +0000";
layers = (
{
guideLines = (
{
angle = 90;
position = "{40, 800}";
},
{
angle = 90;
position = "{460, 800}";
},
{
angle = 90;
position = "{250, 800}";
},
{
angle = 0;
position = "{0, 350}";
}
);
layerId = "85308D4F-3C98-4E4B-A926-E3A24A251B96";
name = Regular;
paths = (
{
closed = 1;
nodes = (
"290 310 LINE",
"372 310 OFFCURVE",
"465 356 OFFCURVE",
"465 505 CURVE SMOOTH",
"465 644 OFFCURVE",
"365 700 OFFCURVE",
"250 700 CURVE SMOOTH",
"210 700 OFFCURVE",
"125 700 OFFCURVE",
"40 610 CURVE",
"97 553 LINE",
"165 615 OFFCURVE",
"225 620 OFFCURVE",
"250 620 CURVE SMOOTH",
"305 620 OFFCURVE",
"385 595 OFFCURVE",
"385 505 CURVE SMOOTH",
"385 385 OFFCURVE",
"295 390 OFFCURVE",
"210 390 CURVE",
"210 200 LINE",
"290 200 LINE"
);
},
{
closed = 1;
nodes = (
"215 130 OFFCURVE",
"185 100 OFFCURVE",
"185 65 CURVE SMOOTH",
"185 30 OFFCURVE",
"215 0 OFFCURVE",
"250 0 CURVE SMOOTH",
"285 0 OFFCURVE",
"315 30 OFFCURVE",
"315 65 CURVE SMOOTH",
"315 100 OFFCURVE",
"285 130 OFFCURVE",
"250 130 CURVE SMOOTH"
);
}
);
width = 500;
}
);
unicode = 003F;
},
{
glyphname = quotedbl;
lastChange = "2012-08-25 02:44:56 +0000";
layers = (
{
guideLines = (
{
angle = 90;
position = "{40, 800}";
},
{
angle = 90;
position = "{460, 800}";
},
{
angle = 90;
position = "{250, 800}";
},
{
angle = 0;
position = "{0, 250}";
}
);
layerId = "85308D4F-3C98-4E4B-A926-E3A24A251B96";
name = Regular;
paths = (
{
closed = 1;
nodes = (
"210 780 LINE",
"170 500 LINE",
"120 500 LINE",
"80 780 LINE"
);
},
{
closed = 1;
nodes = (
"420 780 LINE",
"380 500 LINE",
"330 500 LINE",
"290 780 LINE"
);
}
);
width = 500;
}
);
unicode = 0022;
},
{
glyphname = quotesingle;
lastChange = "2012-08-25 02:45:01 +0000";
layers = (
{
guideLines = (
{
angle = 90;
position = "{40, 800}";
},
{
angle = 90;
position = "{460, 800}";
},
{
angle = 90;
position = "{250, 800}";
},
{
angle = 0;
position = "{0, 250}";
}
);
layerId = "85308D4F-3C98-4E4B-A926-E3A24A251B96";
name = Regular;
paths = (
{
closed = 1;
nodes = (
"315 780 LINE",
"275 500 LINE",
"225 500 LINE",
"185 780 LINE"
);
}
);
width = 500;
}
);
unicode = 0027;
},
{
glyphname = semicolon;
lastChange = "2012-08-25 01:14:12 +0000";
layers = (
{
layerId = "85308D4F-3C98-4E4B-A926-E3A24A251B96";
name = Regular;
paths = (
{
closed = 1;
nodes = (
"207 500 OFFCURVE",
"175 468 OFFCURVE",
"175 425 CURVE SMOOTH",
"175 382 OFFCURVE",
"207 350 OFFCURVE",
"250 350 CURVE SMOOTH",
"293 350 OFFCURVE",
"325 382 OFFCURVE",
"325 425 CURVE SMOOTH",
"325 468 OFFCURVE",
"293 500 OFFCURVE",
"250 500 CURVE SMOOTH"
);
},
{
closed = 1;
nodes = (
"207 150 OFFCURVE",
"175 118 OFFCURVE",
"175 75 CURVE SMOOTH",
"175 32 OFFCURVE",
"206 0 OFFCURVE",
"250 0 CURVE SMOOTH",
"250 0 OFFCURVE",
"175 -150 OFFCURVE",
"175 -150 CURVE SMOOTH",
"175 -150 OFFCURVE",
"224 -138 OFFCURVE",
"259 -99 CURVE SMOOTH",
"314 -37 OFFCURVE",
"325 32 OFFCURVE",
"325 75 CURVE SMOOTH",
"325 118 OFFCURVE",
"293 150 OFFCURVE",
"250 150 CURVE SMOOTH"
);
}
);
width = 500;
}
);
unicode = 003B;
},
{
glyphname = slash;
lastChange = "2012-08-22 22:09:56 +0000";
layers = (
{
guideLines = (
{
angle = 90;
position = "{50, 800}";
},
{
angle = 90;
position = "{450, 800}";
}
);
layerId = "85308D4F-3C98-4E4B-A926-E3A24A251B96";
name = Regular;
paths = (
{
closed = 1;
nodes = (
"450 780 LINE",
"130 -80 LINE",
"50 -80 LINE",
"370 780 LINE"
);
}
);
width = 500;
}
);
unicode = 002F;
},
{
glyphname = underscore;
lastChange = "2012-08-24 00:40:35 +0000";
layers = (
{
layerId = "85308D4F-3C98-4E4B-A926-E3A24A251B96";
name = Regular;
paths = (
{
closed = 1;
nodes = (
"25 -180 LINE",
"475 -180 LINE",
"475 -100 LINE",
"25 -100 LINE"
);
}
);
width = 500;
}
);
unicode = 005F;
},
{
glyphname = braceleft;
lastChange = "2012-08-25 19:57:43 +0000";
layers = (
{
guideLines = (
{
angle = 90;
position = "{40, 800}";
},
{
angle = 90;
position = "{460, 800}";
},
{
angle = 90;
position = "{250, 800}";
},
{
angle = 0;
position = "{0, 350}";
}
);
layerId = "85308D4F-3C98-4E4B-A926-E3A24A251B96";
name = Regular;
paths = (
{
closed = 1;
nodes = (
"290 80 OFFCURVE",
"280 0 OFFCURVE",
"420 0 CURVE",
"420 -80 LINE",
"273 -80 OFFCURVE",
"212 -50 OFFCURVE",
"212 260 CURVE",
"212 290 OFFCURVE",
"185 310 OFFCURVE",
"160 310 CURVE",
"80 310 LINE",
"80 390 LINE",
"160 390 LINE",
"185 390 OFFCURVE",
"212 410 OFFCURVE",
"212 440 CURVE",
"212 750 OFFCURVE",
"278 780 OFFCURVE",
"420 780 CURVE",
"420 700 LINE",
"280 700 OFFCURVE",
"290 620 OFFCURVE",
"290 420 CURVE",
"290 390 OFFCURVE",
"270 350 OFFCURVE",
"230 350 CURVE",
"270 350 OFFCURVE",
"290 310 OFFCURVE",
"290 280 CURVE"
);
}
);
width = 500;
}
);
unicode = 007B;
},
{
glyphname = braceright;
lastChange = "2012-08-25 19:57:37 +0000";
layers = (
{
guideLines = (
{
angle = 90;
position = "{40, 800}";
},
{
angle = 90;
position = "{460, 800}";
},
{
angle = 90;
position = "{250, 800}";
},
{
angle = 0;
position = "{0, 350}";
}
);
layerId = "85308D4F-3C98-4E4B-A926-E3A24A251B96";
name = Regular;
paths = (
{
closed = 1;
nodes = (
"210 310 OFFCURVE",
"230 350 OFFCURVE",
"270 350 CURVE",
"230 350 OFFCURVE",
"210 390 OFFCURVE",
"210 420 CURVE",
"210 620 OFFCURVE",
"220 700 OFFCURVE",
"80 700 CURVE",
"80 780 LINE",
"222 780 OFFCURVE",
"288 750 OFFCURVE",
"288 440 CURVE",
"288 410 OFFCURVE",
"315 390 OFFCURVE",
"340 390 CURVE",
"420 390 LINE",
"420 310 LINE",
"340 310 LINE",
"315 310 OFFCURVE",
"288 290 OFFCURVE",
"288 260 CURVE",
"288 -50 OFFCURVE",
"227 -80 OFFCURVE",
"80 -80 CURVE",
"80 0 LINE",
"220 0 OFFCURVE",
"210 80 OFFCURVE",
"210 280 CURVE"
);
}
);
width = 500;
}
);
unicode = 007D;
},
{
glyphname = bracketleft;
lastChange = "2012-08-25 04:52:13 +0000";
layers = (
{
guideLines = (
{
angle = 90;
position = "{40, 800}";
},
{
angle = 90;
position = "{460, 800}";
},
{
angle = 90;
position = "{250, 800}";
},
{
angle = 0;
position = "{0, 350}";
}
);
layerId = "85308D4F-3C98-4E4B-A926-E3A24A251B96";
name = Regular;
paths = (
{
closed = 1;
nodes = (
"360 780 LINE",
"360 700 LINE",
"220 700 LINE",
"220 0 LINE",
"360 0 LINE",
"360 -80 LINE",
"140 -80 LINE",
"140 780 LINE"
);
}
);
width = 500;
}
);
unicode = 005B;
},
{
glyphname = bracketright;
lastChange = "2012-08-25 04:53:33 +0000";
layers = (
{
guideLines = (
{
angle = 90;
position = "{40, 800}";
},
{
angle = 90;
position = "{460, 800}";
},
{
angle = 90;
position = "{250, 800}";
},
{
angle = 0;
position = "{0, 350}";
}
);
layerId = "85308D4F-3C98-4E4B-A926-E3A24A251B96";
name = Regular;
paths = (
{
closed = 1;
nodes = (
"360 -80 LINE",
"140 -80 LINE",
"140 0 LINE",
"280 0 LINE",
"280 700 LINE",
"140 700 LINE",
"140 780 LINE",
"360 780 LINE"
);
}
);
width = 500;
}
);
unicode = 005D;
},
{
glyphname = parenleft;
lastChange = "2012-08-25 18:28:27 +0000";
layers = (
{
guideLines = (
{
angle = 90;
position = "{40, 800}";
},
{
angle = 90;
position = "{460, 800}";
},
{
angle = 90;
position = "{250, 800}";
},
{
angle = 0;
position = "{0, 350}";
}
);
layerId = "85308D4F-3C98-4E4B-A926-E3A24A251B96";
name = Regular;
paths = (
{
closed = 1;
nodes = (
"360 780 CURVE",
"360 700 LINE",
"280 700 OFFCURVE",
"220 500 OFFCURVE",
"220 350 CURVE",
"220 208 OFFCURVE",
"280 0 OFFCURVE",
"360 0 CURVE",
"360 -80 LINE",
"250 -80 OFFCURVE",
"140 80 OFFCURVE",
"140 350 CURVE",
"140 620 OFFCURVE",
"250 780 OFFCURVE"
);
}
);
width = 500;
}
);
unicode = 0028;
},
{
glyphname = parenright;
lastChange = "2012-08-25 18:28:56 +0000";
layers = (
{
guideLines = (
{
angle = 90;
position = "{40, 800}";
},
{
angle = 90;
position = "{460, 800}";
},
{
angle = 90;
position = "{250, 800}";
},
{
angle = 0;
position = "{0, 350}";
}
);
layerId = "85308D4F-3C98-4E4B-A926-E3A24A251B96";
name = Regular;
paths = (
{
closed = 1;
nodes = (
"360 620 OFFCURVE",
"360 350 CURVE",
"360 80 OFFCURVE",
"250 -80 OFFCURVE",
"140 -80 CURVE",
"140 0 LINE",
"220 0 OFFCURVE",
"280 200 OFFCURVE",
"280 350 CURVE",
"280 500 OFFCURVE",
"220 700 OFFCURVE",
"140 700 CURVE",
"140 780 LINE",
"250 780 OFFCURVE"
);
}
);
width = 500;
}
);
unicode = 0029;
},
{
glyphname = hyphen;
lastChange = "2012-08-24 01:00:48 +0000";
layers = (
{
guideLines = (
{
angle = 90;
position = "{40, 800}";
},
{
angle = 90;
position = "{460, 800}";
},
{
angle = 0;
position = "{-50, 300}";
},
{
angle = 90;
position = "{250, 800}";
},
{
angle = 0;
position = "{-50, 250}";
}
);
layerId = "85308D4F-3C98-4E4B-A926-E3A24A251B96";
name = Regular;
paths = (
{
closed = 1;
nodes = (
"40 260 LINE",
"460 260 LINE",
"460 340 LINE",
"40 340 LINE"
);
}
);
width = 500;
}
);
unicode = 002D;
},
{
glyphname = dollar;
lastChange = "2012-08-27 23:19:07 +0000";
layers = (
{
guideLines = (
{
angle = 90;
position = "{40, 800}";
},
{
angle = 90;
position = "{460, 800}";
},
{
angle = 90;
position = "{250, 800}";
},
{
angle = 0;
position = "{0, 350}";
}
);
layerId = "85308D4F-3C98-4E4B-A926-E3A24A251B96";
name = Regular;
paths = (
{
closed = 1;
nodes = (
"210 180 LINE",
"210 310 LINE",
"115 310 OFFCURVE",
"40 370 OFFCURVE",
"40 455 CURVE",
"40 540 OFFCURVE",
"115 600 OFFCURVE",
"210 600 CURVE",
"210 700 LINE",
"290 700 LINE",
"290 600 LINE",
"440 600 LINE",
"440 520 LINE",
"290 520 LINE",
"290 390 LINE",
"385 390 OFFCURVE",
"460 330 OFFCURVE",
"460 245 CURVE",
"460 160 OFFCURVE",
"385 100 OFFCURVE",
"290 100 CURVE",
"290 0 LINE",
"210 0 LINE",
"210 100 LINE",
"60 100 LINE",
"60 180 LINE"
);
},
{
closed = 1;
nodes = (
"150 520 OFFCURVE",
"120 500 OFFCURVE",
"120 455 CURVE",
"120 410 OFFCURVE",
"150 390 OFFCURVE",
"210 390 CURVE",
"210 520 LINE"
);
},
{
closed = 1;
nodes = (
"290 180 LINE",
"350 180 OFFCURVE",
"380 200 OFFCURVE",
"380 245 CURVE",
"380 290 OFFCURVE",
"350 310 OFFCURVE",
"290 310 CURVE"
);
}
);
width = 500;
}
);
unicode = 0024;
},
{
glyphname = asciitilde;
lastChange = "2012-08-22 22:09:56 +0000";
layers = (
{
layerId = "85308D4F-3C98-4E4B-A926-E3A24A251B96";
name = Regular;
paths = (
{
closed = 1;
nodes = (
"147 185 LINE",
"230 251 LINE",
"297 287 LINE",
"362 212 LINE",
"445 152 LINE",
"516 202 LINE",
"493 300 LINE",
"437 286 LINE",
"357 377 LINE",
"283 388 LINE",
"188 318 LINE",
"130 373 LINE",
"50 272 LINE"
);
}
);
width = 566;
}
);
unicode = 007E;
},
{
glyphname = equal;
lastChange = "2012-08-24 01:01:18 +0000";
layers = (
{
guideLines = (
{
angle = 90;
position = "{40, 800}";
},
{
angle = 90;
position = "{460, 800}";
},
{
angle = 0;
position = "{-50, 300}";
},
{
angle = 90;
position = "{250, 800}";
},
{
angle = 0;
position = "{-50, 250}";
}
);
layerId = "85308D4F-3C98-4E4B-A926-E3A24A251B96";
name = Regular;
paths = (
{
closed = 1;
nodes = (
"40 390 LINE",
"460 390 LINE",
"460 470 LINE",
"40 470 LINE"
);
},
{
closed = 1;
nodes = (
"40 130 LINE",
"460 130 LINE",
"460 210 LINE",
"40 210 LINE"
);
}
);
width = 500;
}
);
unicode = 003D;
},
{
glyphname = greater;
lastChange = "2012-08-25 04:45:40 +0000";
layers = (
{
layerId = "85308D4F-3C98-4E4B-A926-E3A24A251B96";
name = Regular;
paths = (
{
closed = 1;
nodes = (
"460 390 LINE",
"460 310 LINE",
"40 0 LINE",
"40 80 LINE",
"390 350 LINE",
"40 620 LINE",
"40 700 LINE"
);
}
);
width = 500;
}
);
unicode = 003E;
},
{
glyphname = less;
lastChange = "2012-08-25 04:44:59 +0000";
layers = (
{
guideLines = (
{
angle = 90;
position = "{40, 800}";
},
{
angle = 90;
position = "{460, 800}";
},
{
angle = 90;
position = "{250, 800}";
},
{
angle = 0;
position = "{0, 350}";
}
);
layerId = "85308D4F-3C98-4E4B-A926-E3A24A251B96";
name = Regular;
paths = (
{
closed = 1;
nodes = (
"460 620 LINE",
"110 350 LINE",
"460 80 LINE",
"460 0 LINE",
"40 310 LINE",
"40 390 LINE",
"460 700 LINE"
);
}
);
width = 500;
}
);
unicode = 003C;
},
{
glyphname = percent;
lastChange = "2012-08-25 07:42:34 +0000";
layers = (
{
guideLines = (
{
angle = 90;
position = "{40, 800}";
},
{
angle = 90;
position = "{460, 800}";
},
{
angle = 90;
position = "{250, 800}";
},
{
angle = 0;
position = "{0, 350}";
}
);
layerId = "85308D4F-3C98-4E4B-A926-E3A24A251B96";
name = Regular;
paths = (
{
closed = 1;
nodes = (
"450 610 LINE",
"130 90 LINE",
"50 90 LINE",
"370 610 LINE"
);
},
{
closed = 1;
nodes = (
"342 240 OFFCURVE",
"310 208 OFFCURVE",
"310 165 CURVE SMOOTH",
"310 122 OFFCURVE",
"342 90 OFFCURVE",
"385 90 CURVE SMOOTH",
"428 90 OFFCURVE",
"460 122 OFFCURVE",
"460 165 CURVE SMOOTH",
"460 208 OFFCURVE",
"428 240 OFFCURVE",
"385 240 CURVE SMOOTH"
);
},
{
closed = 1;
nodes = (
"72 610 OFFCURVE",
"40 578 OFFCURVE",
"40 535 CURVE SMOOTH",
"40 492 OFFCURVE",
"72 460 OFFCURVE",
"115 460 CURVE SMOOTH",
"158 460 OFFCURVE",
"190 492 OFFCURVE",
"190 535 CURVE SMOOTH",
"190 578 OFFCURVE",
"158 610 OFFCURVE",
"115 610 CURVE SMOOTH"
);
}
);
width = 500;
}
);
unicode = 0025;
},
{
glyphname = plus;
lastChange = "2012-08-25 04:03:49 +0000";
layers = (
{
guideLines = (
{
angle = 90;
position = "{40, 800}";
},
{
angle = 90;
position = "{460, 800}";
},
{
angle = 90;
position = "{250, 800}";
},
{
angle = 0;
position = "{0, 250}";
},
{
angle = 0;
position = "{0, 350}";
}
);
layerId = "85308D4F-3C98-4E4B-A926-E3A24A251B96";
name = Regular;
paths = (
{
closed = 1;
nodes = (
"290 560 LINE",
"290 390 LINE",
"460 390 LINE",
"460 310 LINE",
"290 310 LINE",
"290 140 LINE",
"210 140 LINE",
"210 310 LINE",
"40 310 LINE",
"40 390 LINE",
"210 390 LINE",
"210 560 LINE"
);
}
);
width = 500;
}
);
unicode = 002B;
},
{
glyphname = at;
lastChange = "2012-08-25 20:01:03 +0000";
layers = (
{
guideLines = (
{
angle = 90;
position = "{40, 800}";
},
{
angle = 90;
position = "{460, 800}";
},
{
angle = 90;
position = "{250, 800}";
},
{
angle = 0;
position = "{0, 350}";
}
);
layerId = "85308D4F-3C98-4E4B-A926-E3A24A251B96";
name = Regular;
paths = (
{
closed = 1;
nodes = (
"270 0 LINE",
"110 0 OFFCURVE",
"25 110 OFFCURVE",
"25 350 CURVE SMOOTH",
"25 590 OFFCURVE",
"111 700 OFFCURVE",
"250 700 CURVE SMOOTH",
"410 700 OFFCURVE",
"475 610 OFFCURVE",
"475 430 CURVE SMOOTH",
"475 210 OFFCURVE",
"428 170 OFFCURVE",
"320 170 CURVE",
"214 170 OFFCURVE",
"190 257 OFFCURVE",
"190 350 CURVE",
"190 452 OFFCURVE",
"240 500 OFFCURVE",
"320 500 CURVE",
"320 420 LINE",
"296 420 OFFCURVE",
"270 411 OFFCURVE",
"270 350 CURVE",
"270 301 OFFCURVE",
"276 250 OFFCURVE",
"320 250 CURVE",
"376 250 OFFCURVE",
"395 270 OFFCURVE",
"395 430 CURVE SMOOTH",
"395 550 OFFCURVE",
"360 620 OFFCURVE",
"250 620 CURVE SMOOTH",
"160 620 OFFCURVE",
"105 520 OFFCURVE",
"105 350 CURVE SMOOTH",
"105 190 OFFCURVE",
"170 80 OFFCURVE",
"270 80 CURVE",
"460 80 LINE",
"460 0 LINE"
);
}
);
width = 500;
}
);
unicode = 0040;
},
{
glyphname = asciicircum;
lastChange = "2012-08-24 00:59:12 +0000";
layers = (
{
guideLines = (
{
angle = 90;
position = "{40, 800}";
},
{
angle = 90;
position = "{460, 800}";
},
{
angle = 0;
position = "{-47, 300}";
},
{
angle = 90;
position = "{250, 800}";
}
);
layerId = "85308D4F-3C98-4E4B-A926-E3A24A251B96";
name = Regular;
paths = (
{
closed = 1;
nodes = (
"210 700 LINE",
"290 700 LINE",
"460 300 LINE",
"380 300 LINE",
"250 620 LINE",
"120 300 LINE",
"40 300 LINE"
);
}
);
width = 500;
}
);
unicode = 005E;
},
